<?xml version="1.0" encoding="UTF-8" standalone="no"?>
<!-- Created with Inkscape (http://www.inkscape.org/) -->

<svg
   xmlns="http://www.w3.org/2000/svg"
   id="svg2"
   viewBox="0 0 1300 630.119"
   version="1.1"
xmlns:xlink="http://www.w3.org/1999/xlink">
<title>Russian Federation - Federal Districts</title>
  <defs
     id="defs4">
    <linearGradient id="grad1" x1="0%" y1="0%" x2="0%" y2="100%">
      <stop offset="0%" style="stop-color:rgb(0,255,0);stop-opacity:1"/>
      <stop offset="50%" style="stop-color:rgb(255,255,0);stop-opacity:1"/>
      <stop offset="100%" style="stop-color:rgb(255,0,0);stop-opacity:1"/>
    </linearGradient>
	<linearGradient id="grad2" x1="0%" y1="0%" x2="0%" y2="100%">
      <stop offset="0%" style="stop-color:rgb(255,0,0);stop-opacity:1"/>
      <stop offset="50%" style="stop-color:rgb(255,255,0);stop-opacity:1"/>
      <stop offset="100%" style="stop-color:rgb(0,255,0);stop-opacity:1"/>
    </linearGradient>
</defs>
 
  <g
     id="District_Outline"
     style="fill:#cccccc;stroke:#000000"
     transform="matrix(1,0.00364433,0,1,33.854325,0.95257762)">
    <path
       class="region" id="RU-CFO"
       d="m 77.167,353.12 0.833,-3.333 1,-3.667 -2.5,-2.5 1.667,-1.166 -0.167,-2.834 1,-4 1.833,-4.333 1.334,-3.667 3.333,-1 1.167,-2.5 3.166,-2.666 2.834,-0.251 2.25,2.75 1,-2.833 2.333,0 1,-1.75 0.917,-2 0.333,-3.5 1.5,-1.5 0.252,-2.083 2.583,-2.167 1.001,2.166 1.509,1.509 2.91,0 1.455,1.455 2.533,-0.162 1.94,1.186 3.557,0 1.886,1.886 2.318,0.27 1.401,-1.401 2.802,0 1.779,-1.779 2.209,0 1.833,0.916 c 0,0 0.862,1.347 1.347,1.347 0.485,0 0.593,2.425 0.593,2.425 l 2.372,0 1.617,1.94 2.156,0 0.431,-1.401 1.401,1.401 c 0,0 2.263,1.078 2.695,1.078 0.432,0 2.371,1.078 2.371,1.078 l 1.509,0.862 1.94,0.755 2.695,-0.539 2.371,0.754 -0.862,2.803 -5e-4,3.3415 2.0535,-0.3735 3.07,-0.292 1.754,1.754 4.166,2.851 1.608,-1.608 3.142,3.142 0,6.578 3.948,3.947 3.654,-1.608 4.093,-1.023 3.655,1.608 3.362,-1.608 2.192,4.678 4.312,0.804 3.29,3.289 1.169,3.216 6.14,3.216 2.266,3.289 1.534,-1.535 3.655,0.877 2.046,-3.216 3.874,3.435 -1.973,2.266 -0.585,7.894 -4.678,0 -1.973,2.119 -1.681,-1.681 -4.02,1.388 -2.595,2.595 -1.133,-1.133 -3.142,0 -1.828,-1.827 -1.169,-2.777 -2.924,0 -1.9,1.9 -5.116,1.316 -3.947,-0.877 -3.362,0 -1.316,3.362 -3.362,0 -2.339,-2.339 -1.9,1.901 -0.877,3.508 -2.12,2.12 -4.313,0.511 -3.654,1.17 -3.362,0.585 -2.046,2.047 -2.777,0.584 -1.889,1.903 0,3.043 1.607,1.099 1.099,1.099 0,1.606 0.591,1.522 -1.606,1.607 -2.028,0.507 -1.015,1.014 -1.564,1.564 -1.902,0 0,1.309 -1.479,1.48 -1.902,1.31 -1.606,-0.76 -1.902,2.156 -1.564,1.563 0.592,2.621 -0.592,4.395 1.353,2.452 -0.339,5.24 -2.789,0 -0.93,1.691 -3.297,2.03 -2.916,1.562 -1.649,1.649 -1.606,0.086 -2.346,1.062 1.335,3.426 -1.219,1.219 -3.368,0 -2.555,-1.393 -0.581,-1.859 -2.439,-0.465 -2.322,2.092 -4.762,0 -1.219,4.005 -3.892,3.891 -4.297,0 -1.51,1.51 -2.322,0 -1.163,-1.625 -2.887,0 0,-2.106 -1.282,-1.281 -2.833,-1.334 0,-3.5 -2.182,-2.455 -0.485,-0.545 -1,-3.834 -2.5,-1.5 -2.666,-2.999 1,-3.5 -1,-5.167 -3.167,-2.333 -3.667,-2.833 -1.166,-3.834 -2.5,-2 -0.834,-2.333 2.167,-2.5 1.667,-3.667 0,-3.5 -1.834,-3.333 -1.833,-2.833 1.667,-1.333 1,-2.5 2,0 1.5,-1.334 1.166,-4.5 0.334,-2.666 -1.334,-3.334 -1.833,-1.833 -2.5,-0.333 -1.833,-2 -1.5,-2.167 -2.25,1.916 -1.75,-1.749 -1.5,-2.5 1.5,-2.667 3.166,-3.167 2.167,-2.5 0.833,-3 2.5,-0.166 1.834,2 1,2.5 3.333,1.166 3.167,-1 z"
       ><title>Центральный ФО</title></path>
    <path
       class="region" id="RU-PFO" 
       d="m 248.003,500.049 2.705,0 3.213,0 1.944,-0.762 2.705,1.184 1.691,0 1.183,2.113 -0.845,2.113 -3.128,1.522 0.254,2.113 1.775,0 0.5,2.621 1.083,2.416 2.334,2.334 1.583,1.582 0.667,2.834 2.333,2.334 -2.333,3.166 -2.167,2.166 -3.667,0 -3.75,0.25 -1.916,-1.916 -1.334,-2.709 -1.708,0 -1.792,1.793 -2.916,0 -3.25,-3.25 -0.625,-1.875 -2.459,-2.459 0,-4.25 -2.083,-2.084 -3.833,0 -3.167,1.168 -1.167,-2.5 -3.166,-2.5 -2.834,-1.5 -3.833,1.834 -3.5,0.5 -2.833,-0.834 -2,-3.834 -2.834,-2.5 -2,3.334 -2.166,0 0,-2.666 2,-2 -1.334,-2.834 -1.666,-4.334 -0.667,-4.5 -2.5,-3 -4,-1.5 -1.166,-2.832 -2.167,-2.168 -4,0.668 -2.334,0 0,-3.168 -1.166,-3.332 -4.084,-0.752 -2.083,2.084 -3.833,1.334 -3.334,-1.834 -3.5,0 -1.666,2.5 -3.5,0 -3.834,0 -0.833,1.834 -2.167,2.166 -0.333,3.166 -4.083,-0.748 -2.417,-2.418 0,-3.334 1.084,-3.25 -1.751,-1.75 -2.833,0 -0.12,-3.34 -2.032,-2.033 -0.465,-2.496 -2.381,0 -1.567,-1.568 -0.697,-3.368 -2.381,-0.871 -1.219,1.219 -2.207,-2.09 3.02,-2.904 -0.465,-4.646 -3.949,-3.833 -3.368,0.118 0,-1.975 -2.207,-1.162 -3.716,-0.465 -1.045,-3.949 0.231,-2.904 1.219,-1.219 -1.335,-3.426 2.346,-1.062 1.606,-0.086 1.649,-1.649 2.916,-1.562 3.297,-2.03 0.93,-1.691 2.789,0 0.339,-5.24 -1.353,-2.452 0.592,-4.395 -0.592,-2.621 3.466,-3.719 1.606,0.76 1.902,-1.31 1.479,-1.48 0,-1.309 1.902,0 2.579,-2.578 2.028,-0.507 1.606,-1.607 -0.591,-1.522 0,-1.606 -2.706,-2.198 0,-3.043 1.889,-1.903 2.777,-0.584 2.046,-2.047 3.362,-0.585 3.654,-1.17 4.313,-0.511 2.12,-2.12 0.877,-3.508 1.9,-1.901 2.339,2.339 3.362,0 1.316,-3.362 3.362,0 3.947,0.877 5.116,-1.316 1.9,-1.9 2.924,0 1.169,2.777 1.828,1.827 3.142,0 1.133,1.133 2.595,-2.595 4.02,-1.388 1.681,1.681 1.973,-2.119 4.678,0 0.585,-7.894 1.973,-2.266 1.097,-1.096 0,-3.07 2.338,-1.169 -3.654,-3.801 1.754,-1.608 3.157,1.403 5.929,-5.929 1.792,-1.541 1.25,0.417 3.167,3.75 -0.584,1.833 1.5,0.75 0.309,2.533 -2.047,2.047 0,3.362 -3.216,0.73 0,2.193 -2.192,2.193 0,2.485 1.753,1.754 0,2.485 0.731,2.632 -1.023,2.339 1.169,1.169 1.901,-2.339 1.169,-3.362 2.924,-0.731 3.07,1.462 1.9,1.9 2.631,-2.485 1.389,1.388 0.804,1.828 2.485,-0.292 1.535,-1.536 2.704,0 2.546,-1.005 0,-2 -1.687,-1.688 1.562,-3.062 3.375,1.875 1.188,-1.188 1.187,1.188 1.625,-1.625 2.125,0.75 0.875,1.375 -0.375,2.125 1.75,2.125 2.125,-0.75 3.625,1.625 2.375,2.375 2.625,-1.375 3,1.125 1.688,-1.688 1.687,0.563 1.188,1.187 1.687,-0.562 1,-2.125 1.75,0 3.875,2.625 3.75,2 4.25,1.625 5.75,0.875 0,2.625 -3.375,1.75 0,3.375 -1.875,4.625 -3.375,3 -2.5,3.75 -2.25,2.25 -2.875,0 -2.75,2.375 0,4.25 2.125,3.375 -1.125,3.75 -1.687,1.687 0,1.188 1.812,1.875 -2.062,2.062 -2.063,1.687 -2.875,-0.625 -3,2 0.125,1.625 1.313,1.313 -1.813,1.812 -1.25,1.25 -2,-3 -2.25,0 -1.75,2.875 -0.75,3.125 -2.75,1.375 -3.25,0 -1,-1 -1.125,2.25 0,2.875 -1.312,1.313 -2.184,2.418 2.141,2.963 3.869,2.798 2.387,0 1.973,2.879 2.118,-2.117 0.676,2.789 -0.761,2.535 -2.029,3.721 0,2.027 -3.762,0.889 -2.24,2.24 -3.466,-1.267 0,-2.284 -1.859,-1.859 -2.705,-1.353 -2.536,-0.76 -3.635,2.705 0.676,3.211 1.606,1.607 0.507,4.481 2.114,3.381 4.142,0.421 1.775,-1.183 4.058,1.269 1.183,3.635 0,3.211 -1.944,0 -1.184,-1.607 -2.789,0.254 0,1.183 -2.579,0.887 -3.423,3.424 0,1.861 -2.198,2.957 0,2.875 -1.775,0 -2.282,4.143 -0.423,2.451 -2.621,1.183 -1.015,1.774 z"
       ><title>Поволжский ФО</title></path>
    <path
       class="region" id="RU-URFO"  
       d="m 295.5,490.285 5.667,-0.166 3.833,1.166 2.833,0 3.167,1.668 3.333,-0.668 1.917,-1.916 1.75,0 4.333,2.25 4.5,0 3.667,-0.666 3,1.666 3.667,-1 4.166,0 2.0005,-2.834 3.6665,0.334 3.333,2 4.167,0 1.5,3 3,0 0,-2 0.938,-1.937 1.687,-1.688 0,-2.25 1.375,-0.25 1.75,-1.75 0.688,-1.75 0,-2.937 2.375,-2.375 1.812,-1.813 3.188,-0.562 1.187,-1.188 0,-2.25 -2.5,-1.375 -0.812,-1.937 -1.563,-1.563 -2.25,-1.125 0,-1.875 2.625,-1.25 -1.125,-3.375 0.25,-2.625 2,-2 1.5,-2.5 2.5,-1.75 2.625,2.625 -1.625,1.625 0,2 2.25,0.75 2.875,0.875 1.875,0.875 2.125,1.375 2.75,0 1.75,-1.625 2.875,1.5 2.5,0.75 4,0 3.313,-1.562 2.687,-2.688 1.5005,-2.1265 4.7245,-2.7635 0.513,-3.49 4.516,-3.285 5.542,-1.539 -0.308,-5.234 1.95,-4.824 1.95,-3.9 5.337,-0.82 4.003,1.744 5.748,0 1.437,2.156 5.337,0.615 4.157,-1.59 3.849,3.848 3.182,-0.82 4.414,2.258 1.231,-4.105 6.569,-2.771 6.158,4.516 3.798,-3.797 5.953,-2.566 2.463,-4.105 -4.721,-2.053 -4.208,-2.771 -0.0185,-5.1175 3.9525,-3.9175 1.417,-1.417 0.25,-3.75 2.417,-2.417 0,-4.166 -2.5,-3.5 1.667,-3.167 2.417,-3.084 2.25,-2.25 -1.167,-2.667 0.667,-3.5 -0.667,-4 -1.917,1.917 -1.917,-1.917 -3.833,-0.833 -0.833,-3.5 1.667,-1.667 -0.333,-3.833 -1.5,-3 -2,-2 -2,0 -1.833,-3.333 1.5,-1.167 0,-3 -1.167,-2 0,-1.667 2.25,-2.083 -1.417,-2.917 -3.667,-2.167 0,-2.333 -1.5,-1.5 1.417,-2.5 -0.542,-3.042 -1.625,-1.625 0.083,-2.667 2.333,0.5 0.625,-2.042 1.792,-1.792 1.083,-3.167 -1.333,-2.5 1.25,0 0.917,-2.417 -1.583,-3.833 0,-2.583 -2.583,-0.5 0.083,-3.25 -2,1.917 -1,-1 -2,1.75 -1.083,-1.083 -0.417,-2.167 -3.167,-0.5 -2.083,-2.083 -0.458,-1.792 -1.458,-1.458 -0.167,-3.083 3.042,-2.292 2.458,-2.458 1.25,-2 3.333,0 0,-5.75 0.333,-4 -3.583,-2 -0.958,-1.958 -0.792,0.792 -1.042,-2.208 0.875,-0.875 1.417,-1.417 3.167,-0.5 -0.333,-1.75 1.583,-1.583 -0.583,-2.167 -2.333,-1.25 -2.25,-0.583 -1.25,-1.25 -0.667,-1.833 -1.583,0 -0.167,-2 -1.917,1.917 0.25,1.917 0.667,2.166 -2,1.834 -2.667,-2.667 -1.667,-1.667 -3.5,2.334 1.167,3.666 2.5,2.5 0,1.334 3,1.5 1.917,1.916 1.083,2.584 0,2 -2.833,-2.668 -2.583,-2.583 -2.583,1.583 -2,-1.666 -3.5,-2.666 0,-3 0,-4.168 3,-2.999 0.667,-4.333 0,-4.834 0.833,-3.5 -2.667,0 -1.167,2.5 1.167,2.834 -1.333,3.5 -2,3.166 -3.5,0 -4.167,4.167 -2.667,2.667 2.417,2.416 -0.417,3.416 1,3.168 1.167,3.666 -3.333,3.334 -1.5,4.332 -2.333,3.668 0.5,5.332 -2,2 0.5,3.168 3,0 1.333,1.832 2.5,-1.166 1.917,-1.916 2.333,2.333 4.083,1.417 1.333,1.333 2.167,1.999 1.667,3.334 -1.167,2.666 1,3.168 -1,2.166 -2.667,0.834 0.333,3 0,2 1.417,1.416 3.75,1.084 0,2.332 -3.833,-0.832 -3.333,-3.334 0,-2.5 -0.167,-4 2.667,-2.667 -2,-5.167 -1.583,-1.583 -1.083,-3.249 -3.833,0.5 -3.5,0 -2.25,2.25 -2.25,2.25 0.333,3.166 0.833,3.5 -1,4 -2.083,2.084 -2.583,2.583 -1.5,1.5 0,3.5 -3.333,1.833 -4.167,1.167 -1,1 -2.167,0 c 0,0 -2.417,1.083 -1.75,1.75 0.667,0.667 -0.583,2.917 -0.583,2.917 l -3,0 -2,-2.834 -2.833,0.167 -3.333,-2.333 -2.5,-1.167 -2.5,-3.833 0,-3.167 2.5,0.833 1.75,1.75 2.75,1.75 2.5,-1.666 4.167,0.833 2.333,-1.333 2.5,-3.667 4.333,-4.333 3.667,-1 0.667,-6.167 3.667,-2.833 0.5,-2.667 -2.917,-2.917 -1.25,-4.416 1.333,-3.167 1.833,-6.333 1.167,-7.167 3.333,-5 0.833,-4.5 1,-5.667 -2.833,-2.5 1.333,-4.333 4.75,-4.75 0.75,-6.083 1.667,-1.667 -1.5,-5.667 -3.5,0 -2,-2 -4,0 -2,-2.833 -3.167,1.667 -1.833,4 -1.667,4 -2.167,4.833 -2.833,2.833 -1.25,1.25 -3.583,1.75 -3.333,1.167 -1.833,2.333 -1.167,3.334 2.167,0.666 0,2.5 -1.5,2 -0.833,4 0,2.667 -3.333,1.667 -1.583,1.582 1.75,3.584 3.167,2.167 -0.667,4.667 1.833,4.333 2.667,0.833 -3.833,3.5 0,3.5 -3.333,2 -2.333,-3.666 0,-3.334 -2.833,-3.833 -2.667,-4.167 -3.917,-3.917 -1.307,-2.666 -1.359,2 -2.625,2.625 1.625,1.542 0.333,1.25 1.25,0.417 0,5.667 -1.583,0 -0.75,1.833 -1.333,0.667 -0.25,1.833 -0.254,1.249 3.333,1.667 0,2.167 -3.083,1.25 2.583,2.583 -4,2 -3,3 -3.167,0 -1.167,3.667 -5.667,0 -5.333,1.167 -5.333,3 0,3.667 -4.3695,-0.167 -3.2425,0.499 -1.75,2 -3.125,1.625 -3.125,3.125 -2.875,0.375 0,-2.625 -2.125,-0.75 -2.563,2.563 -3.438,3.438 -1.5,2.875 0.625,3.625 -4,2.5 -0.375,3 -3.375,2.125 -2.25,4.25 0.625,2.875 -1.375,2.625 0,2.25 -4.125,4.125 -0.5635,2.9375 -1.5635,1.5625 -0.875,2.375 0,2.625 -3.375,1.75 0,3.375 -1.875,4.625 -3.375,3 -2.5,3.75 -2.25,2.25 -2.875,0 -2.75,2.375 0,4.25 2.125,3.375 -1.125,3.75 -1.687,1.687 0,1.188 1.812,1.875 -2.062,2.062 -2.063,1.687 -2.875,-0.625 -3,2 0.125,1.625 1.313,1.313 -1.813,1.812 -1.25,1.25 -2,-3 -2.25,0 -1.75,2.875 -0.75,3.125 -2.75,1.375 -3.25,0 -1,-1 -1.125,2.25 0,2.875 -1.312,1.313 -2.184,2.418 2.141,2.963 3.869,2.798 2.387,0 1.973,2.879 2.118,-2.117 0.676,2.789 -0.761,2.535 -2.029,3.721 0,2.027 -3.762,0.889 -2.24,2.24 -3.466,-1.267 0,-2.284 -1.859,-1.859 -2.705,-1.353 -2.536,-0.76 -3.635,2.705 0.676,3.211 1.606,1.607 0.507,4.481 2.114,3.381 4.142,0.421 1.775,-1.183 4.058,1.269 1.183,3.635 0,3.211 -1.944,0 -1.184,-1.607 -2.789,0.254 0,1.183 -2.579,0.887 -3.423,3.424 0,1.861 -2.198,2.957 0,2.875 -1.775,0 -2.282,4.143 -0.423,2.451 -2.621,1.183 -1.015,1.774 5.918,0 1.944,-0.762 2.705,1.184 1.691,0 1.183,2.113 -0.845,2.113 -3.128,1.522 0.254,2.113 1.775,0 0.5,2.621 1.333,-3.5 3.334,0.832 2.833,-0.832 1.167,-3 -1.167,-4.168 2.833,-1.166 4.334,-0.166 2.833,2.832 2.333,0 2.084,-2.082 -2.25,-2.25 -1.834,-1.834 -1.833,-1.166 2.333,-2.334 -1.166,-2.5 1.166,-3.666 3.5,0 3.834,2 2.666,2.332 3,-0.832 4.167,0.832 z m 164.094,-231.896 -1.664,1.664 -1.815,1.513 1.664,1.21 1.361,-1.21 2.118,0 1.966,-1.816 -1.815,-1.814 -1.815,0.453 z m -5.445,-16.788 -1.361,1.21 0.907,1.361 1.815,-1.21 2.269,0.605 -0.605,-1.361 -3.025,-0.605 z m -6.958,6.05 -0.756,1.966 1.21,1.059 1.361,-1.664 -1.815,-1.361 z m -16.182,-9.831 -1.664,1.21 0.605,1.362 -1.21,1.663 0.302,1.059 2.723,0.756 2.571,-1.21 1.513,0.152 0,-1.513 -2.42,-0.605 1.21,-1.361 -1.362,-1.966 -1.663,0.605 -0.605,-0.152 z"
       ><title>Уральский ФО</title></path>
    <path
       class="region" id="RU-SFO"
       d="m 633.466,373.5065 -0.105,-1.9765 -2.446,-0.156 -1.821,1.822 -2.29,-1.041 -3.019,1.145 -1.458,-1.769 -1.561,0 -1.354,1.353 -2.707,0 -1.77,-0.832 0,-3.332 1.041,-1.041 0,-2.186 -0.833,-2.498 1.979,-3.123 1.145,-3.227 -3.436,-3.436 -0.937,-4.58 -2.915,-1.563 0,-2.914 1.146,-1.041 -1.146,-1.146 0,-2.706 -3.122,-1.25 -0.938,0.938 -0.937,-2.811 1.562,-1.563 1.665,-2.706 2.499,-0.729 -0.938,-6.454 -0.729,-4.164 0,-2.187 -2.915,-5.309 -0.312,-5.518 -2.914,-1.978 -1.25,-2.915 -0.8995,-2.243 5e-4,-1.375 3.5,-1.375 3.625,-5.125 2.5,-0.75 3.375,1 1,-2.25 0,-2.75 -1.875,-1.875 0.875,-3.25 2.5,-0.875 0,-2.625 -0.125,-3.375 2.75,-1.875 3.188,-3.188 0.688,-2.313 1.375,0 -0.25,-3.375 -2.625,0 -2.375,-4.5 0,-4.125 -2.125,-2.125 -4.5,-3.25 0,-1.75 -3.375,-1.25 -1.183,-2.486 0.573,-3.35 -1.418,-1.418 -1.479,-2.233 -0.755,-1.931 1.146,-1.207 0.332,-1.6 -1.327,-1.056 -0.433,-2.927 -2,0 -2.5,0.167 0.167,2.667 -0.167,1.334 2,0.167 1.25,1.25 -1.583,3.083 -2.667,1 -2.833,2.333 c 0,0 -0.5,3 -2,3 -1.5,0 -4.167,0.833 -4.167,0.833 l -3,1.833 0.667,3.333 -3,1.334 0.833,-3 0.667,-4.333 2.75,-2.75 1.25,-3.75 4,-1 1,-5.167 2.5,-2.5 1,-4.667 0,-1.667 3.333,-4 1.917,-1.917 1.583,-3.25 1.667,-2.333 0,-3.333 1.916,-1.916 -2.083,-3.583 -3.333,-1.833 -1.334,-1.333 3.334,0.667 0.333,-3.5 -2.25,-2.25 -1.75,-1.75 -1.167,1.333 -2,-1.667 -1.666,-3.333 -1.917,-1.917 -2.583,1.25 -1.917,-1.917 -3.417,2.417 -3.333,0 -3.667,2 1.5,1.5 -0.833,2.833 c 0,0 -2.667,-1.167 -3.667,-1.167 -1,0 -0.833,-2.167 -0.833,-2.167 l 2.167,-2.167 -2.417,-2.417 -3.25,0 -1.042,1.042 -5.291,-0.292 2.166,-2.833 2.584,-2.583 -0.75,-3.417 -2.5,0.333 -3.334,-2 -2.666,2.833 -3,2.167 -2.5,6.167 -0.834,2.667 0,4 1.334,1 0.333,2.833 -1.167,0 -3.833,1.167 -3.667,0 1,1.833 2,1.5 1.5,2 -3.333,-0.667 -3.333,0.667 -0.5,2.667 -5.168,-0.166 -2.083,2.083 0,-2.417 1.583,-3 -3,0.5 -0.833,1.833 -3.667,0.5 -4.333,1 -1.667,1.667 3,1 -1,1.167 -4.5,1.333 -1.583,1.583 -6.25,0.917 -1.75,1.75 -4.583,1.75 -1.833,3.833 -4.667,-0.167 0.167,2.5 2.333,0.167 -2.333,1.833 -1.667,2.333 1.417,1.417 -0.917,2.083 1.333,1.5 -2,0.5 c 0,0 0,-2.5 -1.25,-1.25 -1.25,1.25 -1.917,1.917 -1.917,1.917 l 1.667,1.667 2,0.667 1.667,2.5 -1.667,1.667 -3.166,0 -4.333,1.833 -6.5,0 0,1 -4,-1.5 -7.833,0 -3.333,3 0.833,4.166 1.333,1.334 -1.5,3.334 -1,4 1.333,1.333 2.333,3.833 3.167,1.166 -0.167,2.334 1.833,2.5 -0.667,2.666 -4.5,0 -2.917,-2.916 -1.083,-1.084 1.167,-3.332 -4.333,-2.334 -2.25,-2.25 -2.75,0.416 -3.333,-0.666 0.167,2 1.584,0 0.667,1.833 1.417,1.417 2.083,0.417 2.333,1.25 0.583,2.167 -1.583,1.583 0.333,1.75 -3.167,0.5 -2.292,2.292 1.042,2.208 0.667,-0.916 1.083,2.083 3.583,2 -0.333,4 0,5.75 -3.333,0 -1.25,2 -2.458,2.458 -3.042,2.292 0.167,3.083 1.458,1.458 0.458,1.792 2.084,2.084 3.167,0.5 0.417,2.167 1.083,1.083 2,-1.75 c 0,0 0.729,1.271 1,1 0.271,-0.271 2,-1.917 2,-1.917 l -0.083,3.25 2.583,0.5 0,2.583 1.583,3.833 -0.917,2.417 -1.25,0 1.333,2.5 -1.083,3.167 -1.792,1.791 -0.625,2.042 -2.333,-0.5 -0.083,2.667 1.625,1.625 0.541,3.041 -1.416,2.5 1.5,1.5 0,2.334 3.666,2.166 1.417,2.917 -2.251,2.083 0,1.666 1.168,2 0,3 -1.5,1.168 1.832,3.332 2,0 2,2 1.5,3 0.334,3.834 -1.666,1.666 0.832,3.5 3.834,0.834 1.916,1.916 1.917,-1.916 0.667,4 -0.666,3.5 1.166,2.666 -2.25,2.25 -2.416,3.084 -1.668,3.167 2.5,3.5 0,4.166 -2.416,2.417 -0.25,3.75 -1.418,1.416 -3.917,3.917 0.054,5.117 4.208,2.771 4.721,2.053 -2.463,4.105 -5.953,2.566 -3.7975,3.7975 -6.1575,-4.5145 -6.569,2.771 -1.231,4.106 -4.414,-2.258 -3.182,0.82 -3.849,-3.848 -4.157,1.59 -5.337,-0.615 -1.437,-2.156 -5.747,0 -4.003,-1.744 -5.338,0.82 -3.9,8.725 0.308,5.234 -5.543,1.539 -4.516,3.285 -0.513,3.49 -4.724,2.762 -1.5,2.125 -2.687,2.688 -3.313,1.562 -4,0 -2.5,-0.75 -2.875,-1.5 -1.125,1.625 -3.375,0 -2.125,-1.375 -1.875,-0.875 -2.875,-0.875 -2.25,-0.75 0,-2 1.625,-1.625 -2.625,-2.625 -2.5,1.75 -1.158,1.93 -2.342,2.57 -0.25,2.625 1.125,3.375 -2.625,1.25 0,1.875 2.25,1.125 1.563,1.563 0.812,1.937 2.5,1.375 0,2.25 -1.187,1.188 -3.188,0.562 -4.187,4.188 0,2.937 -0.688,1.75 -1.75,1.75 -1.375,0.25 0,2.25 -1.687,1.688 -0.938,1.937 0,2 2.5,1.168 1.333,4.166 -0.833,2.334 0,3.166 -2.084,2.084 0.917,2.916 3.667,1 3.333,-2 2.417,2.416 -1.083,3.918 3.333,1 1.833,-1.834 3,1.834 3.334,0 0,2.332 -4,1.834 -1,4.5 2.833,0 3.5,-1.666 1.833,2.666 4,-2.166 4.667,-1.334 2.75,-2.75 2.583,-0.084 3.5,-0.166 2.5,-2.5 3,0 0.834,2.334 -2,2.666 -2.334,0 0,3 2.834,1.166 2.083,2.084 1.917,4.084 1.833,1.832 2.833,2.834 2,6.666 0,5.5 2.667,2.5 0,4 2.833,5 0.834,4.334 1.166,3.834 2.167,4.332 3.667,-0.666 1.833,-3.834 2.667,-0.832 1.833,2.166 0,2.5 1.833,1.832 2.001,2 3.666,-0.666 1.667,1.668 4.166,-0.668 2.084,-2.082 4.25,0 2.041,2.041 3.125,1.375 2.334,2.166 0.666,4 2.834,1.834 1.333,3 3.5,2.166 0,4 4.5,1.166 4,1.334 4.333,-1.666 2.584,-2.584 0.916,3.416 1.834,3.334 1.5,2.5 4.833,0.834 2.167,-2.168 4.166,-2.332 5,0.166 2.751,-2.75 3.916,-0.916 0.667,-3.5 3.333,0 3.334,-3.334 5.5,-3.5 4.333,0 1.167,-3.5 3.666,0 2.917,-2.916 3.583,1.582 2.834,2.834 4.5,-1.832 3.833,1.166 3.167,3.166 2.666,2.666 4.834,1.668 3.333,1 4.667,-0.834 4.5,1.168 4.833,0 3.167,0 3.75,-3.75 3.916,-2.584 0,-4 -2.916,-2.918 0,-3.748 -2.084,-2.5 0.667,-4.334 2.25,-2.25 2.083,-4.25 2.583,-2.584 1.917,-1.916 3.834,2.834 6.5,0 3.25,3.248 4.75,-1.248 4.166,0 4.334,1.666 3.084,3.082 2.416,5.084 2.584,2.584 4.082,1.75 6,0.5 4.167,-1.168 4.333,-1 3.916,-3.916 4.751,0 7.666,-1.084 2.334,1.5 5.833,0.834 6.333,0 2.333,2.334 1.334,2.5 4.5,1.5 5,-0.668 6.833,0 4.834,-1.5 5.333,0 2.083,-2.082 4.084,-4.084 5.333,-2.5 3.833,-2.666 2.917,-2.918 1.417,-4.916 6,-6 4.166,-1.834 3.167,1.168 3.5,1.832 4.667,-2.666 3.333,-2 4.5,0.834 6.166,0.5 5.5,-2 3.25,-3.25 2.25,-5.25 3.5,-1 0,-4.668 -1.5,-1.5 -2.5,-4.832 1.834,-4.668 0,-4.5 1,-7.166 1.333,-2.834 -1.333,-5.332 -2.334,-2.334 -2.083,-2.084 -2.583,2.084 -1.834,-2.334 1.334,-3.332 1.833,-5.5 2.583,-2.584 5.25,-3.084 -2.415,-4.164 -1.083,-2.168 -2.834,0 -0.833,-3.582 -1.417,-2.168 2.5,-1.5 0,-1.166 -1.333,0 -2.25,-2.416 -1.833,-0.25 0.416,-4.25 -1.083,-1.918 -1.167,-3.25 -2.666,-1.332 -1.917,2.666 -2,-0.75 -0.167,-2.834 -1.333,-1.332 -1.958,-0.543 -2.042,2.043 -1,2.5 -3.417,-0.918 -1.083,-2.082 2,-2.5 -1.167,-1.918 -2.25,0.75 -2.916,-0.75 -2.01,-2.029 -0.038,-2.008 -2.706,-0.728 0,-2.915 -2.498,-0.834 -2.603,-3.435 -3.643,-1.352 -0.78,-3.8 -1.718,-1.717 0.572,-1.822 -4.736,-4.737 -1.354,-3.747 -2.082,-0.208 0,-2.395 -2.238,-2.446 -1.822,-1.822 -2.656,0 0,2.55 -2.341,2.342 -3.643,-0.52 0,-2.394 -1.561,-1.353 0,-3.019 -3.228,-0.417 -3.747,-1.77 -3.54,0.417 -3.539,-0.52 -1.978,2.393 -0.989,3.28 -2.342,2.342 0.937,3.227 -1.249,3.748 -3.123,3.123 0,5.83 -4.372,3.017 0,3.436 -1.873,-2.602 0,-2.916 -2.187,-2.185 -2.082,0.937 -0.52,2.705 -5.518,2.082 -2.602,0 -1.041,3.123 -1.666,2.499 -3.591,0.259 -4.007,-4.006 -0.417,-8.328 0.52,-4.996 0,-4.685 0.625,-4.164 0,-4.06 -2.915,-1.249 -2.082,-0.729 -0.312,-1.978 -0.963,-2.263 -1.9,-1.901 0,-2.238 1.301,-1.301 0.364,-3.071 -1.821,-1.821 -2.394,0 -2.603,-1.249 0,-2.395 1.041,-1.041 -1.145,-1.145 -0.937,-3.643 -2.082,-3.748 -2.498,-1.769 -2.811,0.833 -2.707,0.208 0,-3.227 2.239,-0.625 0,-2.135 -2.341,-2.3395 z m -56.047,-192.2545 -0.606,0.908 1.362,0.907 0.604,-1.059 -1.36,-0.756 z m -6.504,-13.461 -1.513,0.907 2.118,1.059 1.512,1.058 1.664,-0.453 -0.454,-1.966 -1.664,0.453 -1.663,-1.058 z m -14.823,-7.412 0,-2.117 0.151,-3.782 -1.058,-2.117 -1.513,0.151 -2.117,2.571 0.151,2.269 -0.908,1.513 0.605,4.084 -1.815,1.815 0.151,4.083 -0.907,3.479 -0.757,3.479 1.362,0.756 2.874,-2.269 1.664,-1.058 3.781,-1.966 3.025,-0.303 3.782,-2.874 1.814,-3.479 -1.21,-3.025 -1.361,-2.269 -1.815,0.757 -1.815,-3.177 -1.362,-1.361 -1.664,1.966 -1.058,2.874 z m -13.613,-16.184 -1.361,1.664 -1.21,2.269 -1.059,-0.454 0.756,-2.874 0,-3.025 -3.327,1.059 c 0,0 -1.966,0.454 -2.42,0.605 -0.454,0.151 -2.723,0.908 -2.723,0.908 l -1.059,2.269 -0.605,1.966 -1.361,1.664 0.454,1.966 -2.571,1.966 1.21,1.059 1.814,-0.605 1.513,2.117 0.151,1.966 1.361,1.664 3.479,0.302 0.454,1.966 2.42,-1.512 1.21,1.966 3.327,1.21 3.177,-1.513 1.513,-2.118 -1.21,-2.42 -1.967,-2.723 1.513,-1.059 0.605,-2.571 -0.757,-2.874 0.303,-2.874 -3.63,-1.964 z m -2.722,46.284 -1.513,1.814 -1.966,0.454 1.815,1.361 1.815,-1.815 -0.151,-1.814 z m -25.259,-0.605 -0.756,1.209 1.058,0.908 1.362,-1.967 -1.664,-0.15 z m -15.579,41.442 -1.815,0.908 c 0,0 0.756,2.269 0.756,1.966 0,-0.303 1.361,-0.605 1.361,-0.605 l -0.302,-2.269 z m -13.007,-13.612 -1.664,1.36 0.907,1.816 1.512,-0.303 -0.755,-2.873 z m -0.606,19.814 -0.302,1.663 2.571,0 1.362,1.361 0.151,-2.269 -1.513,-0.302 -2.269,-0.453 z m -8.772,-89.693 -0.908,0.908 1.059,0.605 1.664,1.21 0.454,-1.513 -2.269,-1.21 z m -9.226,105.422 -1.059,1.361 0.605,1.815 1.059,1.362 1.512,-1.663 0.605,-1.967 -1.361,-1.362 -1.361,0.454 z m 21.942,-125.002 -1.25,0.25 -0.812,0.812 1.25,1.25 1.687,-0.562 1,-1 -1.875,-0.75 z m 28.625,-2.5 -1.125,1.125 0.875,0.875 0.938,0.937 1.937,-1.812 0,-1.25 -2.625,0.125 z m 12,-1.625 -0.375,2.5 -2.25,1 -3.375,2.25 0,3.125 1.375,1.375 -1.812,1.812 -1.188,2.313 1.625,2.25 0.625,2.25 2.875,2.5 2.625,-2.5 1.75,0 2.625,-1.5 3.125,-1 -0.875,-3 0,-3.75 1.875,-1.625 -1.562,-1.563 -3.188,-3.187 -1.125,-2.5 -2.75,-0.75 z m -7.375,20.75 -2.125,-0.25 0.375,2.75 0,1.75 2.75,0.75 1.125,1.125 1.688,-1.688 0.937,-2.437 -1.625,-1.25 -3.125,-0.75 z m -33.375,64 -0.812,0.812 1.062,0.938 1.75,-0.5 -2,-1.25 z"
       ><title>Сибирский ФО</title></path>
    <path
       class="region" id="RU-DVFO"
       d="m 745.375,444.9225 -2.701,-0.7225 0,-2.914 -2.498,-0.834 -2.603,-3.436 -3.644,-1.352 -0.78,-3.801 -1.718,-1.717 0.572,-1.822 -2.551,-2.551 -2.186,-2.186 -1.354,-3.748 -2.082,-0.208 0,-2.395 -2.238,-2.446 -1.822,-1.822 -2.655,0 0,2.551 -2.342,2.342 -3.643,-0.521 0,-2.394 -1.562,-1.354 0,-3.019 -3.228,-0.417 -3.747,-1.77 -3.54,0.417 -3.539,-0.521 -1.978,2.394 -0.989,3.279 -2.342,2.342 0.937,3.228 -1.249,3.748 -3.123,3.123 0,5.83 -4.372,3.018 0,3.436 -1.873,-2.602 0,-2.916 -2.187,-2.186 -2.082,0.938 -0.521,2.705 -5.518,2.082 -2.602,0 -1.041,3.123 -1.666,2.498 -3.592,0.26 -4.007,-4.006 -0.417,-8.328 0.521,-4.996 0,-4.685 0.625,-4.164 0,-4.06 -2.915,-1.249 -2.082,-0.729 -0.313,-1.978 -0.963,-2.264 -1.899,-1.9 0,-2.238 1.301,-1.301 0.364,-3.071 -1.821,-1.821 -2.395,0 -2.603,-1.249 0,-2.395 1.041,-1.041 -1.146,-1.146 -0.937,-3.643 -2.082,-3.748 -2.498,-1.77 -2.811,0.833 -2.707,0.208 0,-3.227 2.238,-0.625 0,-2.134 -2.342,-2.342 -0.106,-1.979 -2.446,-0.156 -1.821,1.822 -2.29,-1.041 -3.019,1.145 -1.458,-1.769 -1.561,0 -1.354,1.353 -2.707,0 -1.77,-0.833 0,-3.331 1.041,-1.041 0,-2.186 -0.833,-2.499 1.979,-3.123 1.145,-3.227 -3.436,-3.435 -0.937,-4.581 -2.915,-1.562 0,-2.915 1.146,-1.041 -1.146,-1.146 0,-2.707 -3.122,-1.25 -0.938,0.937 -0.937,-2.811 1.562,-1.562 1.665,-2.707 2.499,-0.729 -0.938,-6.454 -0.729,-4.164 0,-2.186 -2.915,-5.309 -0.312,-5.518 -2.914,-1.978 -1.25,-2.915 -0.9,-2.243 0,-1.375 3.5,-1.375 3.625,-5.125 2.5,-0.75 3.375,1 1,-2.25 0,-2.75 -1.875,-1.875 0.875,-3.25 2.5,-0.875 -0.125,-6 2.75,-1.875 3.188,-3.188 0.688,-2.313 1.375,0 -0.25,-3.375 -2.625,0 -2.375,-4.5 0,-4.125 -2.125,-2.125 -4.5,-3.25 0,-1.75 -3.375,-1.25 -1.183,-2.486 0.573,-3.35 -1.418,-1.418 -1.479,-2.233 -0.755,-1.931 1.146,-1.207 0.332,-1.6 -1.327,-1.056 -0.433,-2.927 2.833,0.667 3.334,1.333 0.666,-2 2.084,-2.917 1.75,1.75 0,3.333 2,2.833 2.333,0 -2.333,-2.167 1.583,-1.587 3.083,-3.083 4.167,-2.167 6.333,-1.167 5,-1.5 1.251,1.917 -1.167,1.167 2.75,2.75 5.166,0 0.167,-1.333 0.5,-1.833 2,3.167 3.5,-1.333 3.5,-3 c 0,0 3.667,-0.667 4.5,-0.667 0.833,0 0,-3 0,-3 l -0.5,-3.333 -2.5,-3.833 0.667,-3.833 0.5,-2 2,2 2.083,-1.583 1.75,1.75 2.667,1.833 0.666,-2 1.334,-0.333 1.333,1.5 1.333,-1 c 0,0 -0.166,-3.083 1.084,-3.083 1.25,0 1.583,-1.583 1.583,-1.583 l 3.667,2.833 1.166,-1.167 4,1.333 -1.333,4.083 1.916,0 1.917,1.917 0,3.167 3.167,-2 1.667,1.667 0,3.667 -2.167,0.667 -1.333,1.333 2.333,2.334 c 0,0 1.833,-0.834 1.833,-1.667 0,-0.833 1.5,1.5 1.5,1.5 l 0,2.667 3.417,-0.084 3.25,3.25 2.5,1.667 3.5,0.667 1.5,-1.5 3.833,2 0.334,-3.167 -1.667,-5.5 -1,-2.5 0,-2.333 -2.167,-2.167 0,-3 4.167,0.5 2.333,2.333 3.667,-1 4.167,0 -0.834,-4.333 2.334,-4.333 4.333,-1 3.167,-0.167 3.666,1 0,-2.5 -3.916,-1.75 1.416,-1.417 1.834,-2 3.166,0.167 2.5,-2.5 -1.166,-0.667 -2.5,-2.5 -2.834,-1.5 0,-3.667 -1.166,-1 -1.667,4.333 -2,-1.333 0,-3.5 3.667,-3.333 -0.5,-2.333 -3.5,-2.167 2.166,-2.167 3.167,0 4.667,-2.333 1.333,-3.833 6.167,-2.333 4.833,-2.167 c 0,0 0.667,0.667 0.667,1.667 0,1 -3.167,2.167 -3.167,2.167 l -1.167,4.5 2.834,-1.333 2.5,-2.5 3.166,1 -0.833,6.5 2.833,-2.667 0,-3.167 -1,-5.333 0.667,-2.333 1.5,-4.167 3.5,-1.667 5,-2.167 3,2.167 c 0,0 -1.417,1.917 -2.5,3 -1.083,1.083 1.167,1.833 1.167,1.833 l 3.666,0 2.334,-2.667 c 0,0 2.666,2.833 3.166,3.333 0.5,0.5 -0.5,-3.833 -0.5,-3.833 l 4.5,-2.5 3.167,1.667 3.5,-0.166 3.167,-3.167 3.333,-4.167 0,-4.833 4.167,-6.167 3.5,-3.5 3.166,-3.834 5.5,-0.833 4.584,-0.25 2.25,2.25 4.666,4.667 4.167,-1.833 3,-2.417 3.25,0 -1.583,-1.583 0,-2.334 3.166,-3.1665 0,-5.5005 1.5,-2.833 2.5,0 2.167,-2.167 0,-3.333 4.167,-3 1,-4 -1.667,-1.667 0.667,-2 -2.333,-3.333 1.833,-3.333 1.75,-1.75 3.167,3.167 -2.417,2.417 2.5,2.5 3.833,0 2.667,-1 3.667,-1.667 3.333,-0.833 0.833,-2.667 -1,-2.667 -1.833,-0.333 -5.667,-2.5 -4.166,0.667 -1,-2.333 -3.334,0 0,-1.833 0.834,-3.167 3,-1.5 0.333,-3.5 2.667,-1.5 2.333,0 -1,-2.833 1,-3 2.833,-4.167 1.333,-4.833 5.084,-4.917 5.666,-5.667 2.584,-2.584 5,-2.167 3.582,-2.083 3.334,-3.333 3.417,-3.417 4.167,-1.667 3,-4.333 5.666,-1.666 3,-3.167 3.667,-1.667 2.333,-1.333 2.667,2.667 3.833,-1.167 3.417,2.583 2.25,-2.25 4,-2.167 0,-2 -4,0.833 -4.667,-0.333 -3,-0.833 1,-3 3.167,-2.167 -2.667,-0.667 0,-1.5 1.834,0.167 0.333,-3 1.667,-2.333 2.333,-2.333 4,-1.5 1.167,0 3,-4.167 c 0,0 2.833,-0.833 3.833,-1.833 1,-1 0,2.833 0,2.833 l 2.167,1.833 1.666,1.667 -1.833,3.833 c 0,0 2.5,0 3.5,-1 1,-1 0,2 0,2 l 0,3.5 -3.833,2.5 3,0.5 1.833,-1.833 3.917,1.5 0,-1.75 3.083,3.083 2.167,3.333 1.833,-0.5 1.833,-2.333 0,2.167 1.167,2.667 -3.5,0 0,1.333 2.833,0.833 -1.5,4.333 -3.833,0.333 -3.5,3.833 -1.833,4 -3.5,1.167 -2.5,-1 -3.167,0 -2.833,4.167 1.25,2.5 0,4.25 -2.75,2.75 -2.167,-1.667 -2.167,1.667 -3.166,0 -1.834,-1.5 -1.666,-1 -0.25,1.583 1.25,1.25 -1.5,0.667 -1,1 2.916,0.5 0,2.25 2.25,2.25 3.667,-1 2.5,0 0.166,3.167 1.5,-1.5 2.584,2.584 2.75,2.75 1.333,4.833 0.667,3.833 -2.667,4.333 -2.5,0 -3.5,1.5 -1.166,2.667 2.833,-1.166 1.833,0 -2.666,3.167 1.666,1.665 2.167,-0.833 0,-3.167 2,-1.5 3.583,-0.083 2.084,-2.083 1,-1.667 2.5,0.167 2,-0.333 3.666,-0.167 0,2.333 3,0 0.834,-1.583 2.916,0 1.75,-1.75 2.167,-0.333 1.833,1.5 2.667,-2 1.25,2.917 2.417,2.417 0,3.5 -3.334,1.333 -2.166,4.667 -3.5,0 -1,1.5 3.916,2.583 -1.25,1.25 2.834,4.333 1.166,5.333 0,6 1,4.667 1.667,4 0.834,5.333 1.666,5.167 3.167,2.833 0,4.833 1.667,6.667 2.833,3.167 1.833,1.834 -2.833,2.5 -3,-1.5 -4.167,1.333 -2.166,5 -3.5,5 1.833,1.833 -1.333,4.666 0,2.5 2.833,4.333 0,2.667 -3.167,-1.5 -2.333,-2.333 -2,0.167 1.833,4.833 0,3.167 3.083,1.417 -3.083,3.083 -2,0 0,4.333 -1.833,1.833 2.5,4.167 2,2 2.333,2.333 3.167,3.167 0.666,4.667 0.5,3.667 4.584,2.416 2.75,2.75 4.666,0 -1.25,-2.833 0,-1.417 1.584,-1.583 1.167,-2.5 4.333,4.333 0.833,3.834 4.333,3 4.292,0.958 1.708,-1.708 2.75,0 3.25,3.25 -1.333,3.167 -3.333,1 1,4 3.5,5.833 3.083,0.75 2.417,2.417 5.666,-0.667 3.334,2.667 1.166,3 -2,1.333 -2.833,1.833 -1.667,3.667 1.167,6.667 3.333,5.166 2.917,1.083 1.417,1.417 4.833,1.167 0,2 -3.667,0.5 0,3 -1.333,3 1.667,6 2.832,1.167 4.334,4.333 3.167,3 0.667,5.333 1.666,7 0.834,4.5 0,3.334 -1.834,-2.5 -4.833,0 -3.083,-1.584 -2.417,-2.416 -3.333,0 -3,-3 -5.834,-2.667 -5.5,-2.333 -6.333,-3.334 -1.833,-2.5 -3,-2 -3.334,-0.666 -7.166,-2.167 -4.667,-2.5 -4.5,-3 c -0.75,-0.75 -2.167,-4 -2.167,-4 l -4.835,-4.824 -3.333,-3.5 -0.001,-3.5 -2.333,-2.334 -0.5,-3.834 -2.833,-4 -3.084,-0.666 0,-1.417 1.417,-1.417 1.167,-2.5 -1.583,-2.75 1.5,-1.5 1.25,-1.25 -1.667,-5 -0.833,-5.333 -2,-6.167 -3.167,-4.167 -1.333,-5.5 -1.5,-5.167 -1.667,-4.167 -2,-6.167 -2,-1.667 -0.167,-3.333 1.167,-4 0,-2.333 0,-2.833 -2,-2 -2.167,-4.167 -2.166,0 -2.084,-0.75 -1.916,-1.917 -2.334,-3 -3.5,-2.167 0,-3.833 3.167,-2.999 -1.084,-1.084 -2.583,2.583 -3.666,2 0,3.5 -1,2.667 1.999,1.833 2.917,2.917 2.75,2.75 3.334,0 -0.334,2.167 -1.5,-0.167 -1.582,2.2465 2.084,2.0795 0,5.333 1.667,4 0.333,6.333 -1.166,3.834 -1.334,-3.333 -3,-1.5 10e-4,4.167 -2.5,-2.5 -1.667,-1.667 -1.334,-2.833 -4.666,-4.333 1.333,3.667 -1.333,4 -4.5,0 0,2.667 -1.5,5.5 -1.834,2.167 0.167,7.333 3,2 -0.5,4.667 3,4.667 0,5 0.917,6.583 2.75,2.75 0,3 2.333,2.334 2.167,-0.334 1.916,-1.75 1.417,-1.416 2.5,0 -0.167,3.166 -2.666,0.834 0,4.5 -5,0.833 1.166,5.833 -0.5,2.5 -3.166,1.332 0,3.5 -1.167,3.166 c 0,0 -3.917,0.917 -3.167,0.167 0.75,-0.75 -1.5,-1.5 -1.5,-1.5 l 0,-2.167 0.667,-2.166 2.75,-0.917 -1.25,-1.25 -3,1.167 -3.167,0.5 0,1.5 -4.666,2.166 -2.334,2.834 -2.666,0.666 -2.167,2.167 -0.833,2.5 0.832,3.167 1.834,1.833 -2.166,2.333 -3.5,-1.333 1.083,3.583 -2.583,2.584 -2.334,2.166 -2,0 -2,1.834 1.334,2.166 1,1 -2.834,1.834 -3.833,0 -3.75,3.749 -2.417,2.417 -2.667,4.5 -2.833,2.834 -2.833,5.666 -0.5,5.5 2.667,5.334 -2.5,2.5 -0.833,5.333 1.499,3.833 2.334,2.334 -2,3.333 0,4.5 0,6 -1,4.167 0,5.666 1.667,1.834 0,4 0,4.5 -1.5,5.666 0,4.667 -2.5,4.167 0,4.166 -1.334,3.667 1.5,3.375 2.542,0 1.958,-1.958 2.749,0 2.168,-2.168 2.416,-2.416 1.667,1.667 2,1 0,2.167 1.584,2.916 2,2 1.75,-1.75 0,-2.666 -2.334,-1 0,-2.5 1.834,-2 0,1.666 2,1.5 1,-0.333 1,1 0,3 0,2.167 3.333,-1.334 0,-1.666 1.833,-2.5 1.167,-1 1.833,1.333 0.417,-2.75 -1.583,-1.583 -1.5,-2.834 -1.834,-3.333 3,-1.666 1.834,-1.834 3.666,-0.833 4.334,0 3.583,0.417 1.583,1.583 c 0,0 3.834,-0.667 4.667,-0.667 0.833,0 3.166,-1.001 3.166,-1.001 l 2.084,2.084 -1.584,1.584 -1.166,1.166 -1,1.834 2.833,0 3,0 0.667,2.166 2.5,2.5 3.084,-0.416 1.583,1.583 1.666,3.167 0.5,6.333 2.167,6.667 3.416,4.916 4.25,4.25 1.667,1.668 0.833,2.832 3.334,3.334 2.333,4 0.834,2.334 3.083,4.75 2.583,2.582 0,7 -1,6 1.834,5.9995 -0.167,6.1655 1.833,4.834 1.333,5.334 1,4.832 1,6.5 0,6.334 -1,3.334 0,6.5 0,8 -1,6 1,6.166 -0.333,8 0,3.834 -3.333,5.5 -2.167,4.666 -2.5,4.668 -2.167,0 -4.166,1.666 -3.5,2 -2.417,-1 0,-2.25 -1.25,-1.25 -1.251,2.834 0,3.082 -1.416,-1.416 -2.166,-2.166 0,1.666 -0.667,4.166 0.667,2.834 -0.917,3.25 -1.417,1.416 0,1.668 0,2.666 -3.166,-0.166 -1.334,-1.334 1.167,-3.834 2,-4 0,-3.332 -1.75,-3.918 -3.583,-3.582 -1.834,-1.834 -1.5,-3.834 -3.166,-3.166 -3,-1 -0.084,-3.25 2.084,-2.084 1.833,-1.832 0,-3.334 2.333,-2.334 2.667,-1.332 2.751,0.916 2.416,-2.416 1.5,-3 -2.667,-4.168 1.333,-3.5 -1.666,-3.666 -0.334,-3.834 -2.333,-3.166 0.667,-2.666 -1.835,-3.167 -0.834,-3.665 -3.333,-3.5 2.5,-2.5 0,-3.668 -2.083,-2.082 -2.415,-2.42 -0.667,-2.166 -2.833,0 0,0 -4,2.166 -1,3.334 -2.667,4.334 -3,3.832 1.334,4.168 -3.5,2.832 -3.5,2 -3,1 -0.834,3 -3.166,0 -3.167,-1.832 -2.333,-0.834 0,-3.834 -2.667,-2.332 -2.164,-2.1675 -3.586,-0.9165 -1.917,1.916 -3.833,-1 -3.167,-0.832 -4.833,0.666 -4.5,0 -1.833,1.834 -5,1.832 -5,-1 -2.083,-4.082 -2.417,-2.418 c 0,0 -2.833,-1.666 -2.833,-2.334 0,-0.668 -3.167,-3.166 -3.167,-3.166 l -4,-0.666 -1.667,-4 -3.834,-3 -2.666,-2.666 -3.667,-1 -1.333,-3.5 -3.334,-1.5 -2,-2 -6.666,-0.668 -3.5,0 -4,2.168 -5,-0.834 -3.834,1.334 -4.166,0 -5.668,4.166 -2.666,2.666 -2.415,-4.164 -1.083,-2.168 -2.834,0 -0.833,-3.582 -1.417,-2.168 2.5,-1.5 0,-1.166 -1.333,0 -2.25,-2.416 -1.833,-0.25 0.416,-4.25 -1.083,-1.918 -1.167,-3.25 -2.666,-1.332 -1.917,2.666 -2,-0.75 -0.167,-2.834 -1.333,-1.332 -1.958,-0.543 -2.042,2.043 -1,2.5 -3.417,-0.918 -1.083,-2.082 2,-2.5 -1.167,-1.918 -2.25,0.75 -2.916,-0.75 -2.01,-2.029 -0.033,-2.0015 z m 175.44,-68.9925 -1.154,0.289 -0.864,-2.451 0,-2.164 3.749,1.01 1.874,0.865 1.01,2.308 2.019,2.019 3.605,0.721 0.865,2.308 4.037,2.596 2.163,0 1.73,2.451 1.442,3.894 2.235,2.234 4.254,4.399 2.739,0.721 3.75,1.442 3.605,3.173 4.903,2.739 3.172,2.74 4.183,2.163 3.604,2.163 2.308,1.874 4.037,1.587 -0.576,1.875 -1.441,1.441 -2.74,0.865 -2.163,0 0.577,3.028 -0.577,2.163 0,1.73 2.451,3.75 c 0,0 2.309,2.594 1.875,3.027 -0.434,0.433 0.145,4.471 0.145,4.471 l 1.875,1.875 2.884,2.885 2.451,1.586 3.749,0 2.163,2.162 2.451,0 1.298,2.74 3.173,0.145 1.946,-1.947 3.389,1.947 2.02,2.596 c 0,0 0.722,1.73 0,1.73 -0.722,0 -4.615,-1.875 -4.615,-1.875 l -1.658,1.658 -3.677,0 -1.153,2.957 0.721,2.883 2.307,2.307 1.73,3.75 -2.307,1.875 -1.875,-2.307 -2.451,-2.453 -4.326,-4.037 0,-2.74 -2.884,-2.883 -2.739,-2.74 -1.875,-2.451 -2.308,-4.471 -2.884,-2.74 -3.028,-1.73 -2.884,-0.865 -2.453,-5.191 -5.335,-7.354 -4.326,-4.327 -3.604,-3.604 -3.174,-4.326 -2.019,-3.316 -5.479,-2.452 -4.326,-1.874 -2.596,-0.289 -3.461,-4.759 0,-2.162 -3.749,-3.75 -2.019,-3.749 -4.038,-1.298 1.01,-2.884 0,-2.163 3.316,1.009 0.577,-2.884 -1.946,-1.946 0,-1.082 -1.911,-1.911 -2.777,-0.976 z m 121.851,75.273 0.577,3.027 0.288,2.885 1.155,0.432 0,-2.307 0.865,-1.875 0,-2.595 -2.885,0.433 z m 9.95,1.731 0,1.296 1.875,1.01 0,-2.164 -1.875,-0.142 z m -5.912,-11.682 1.731,0.721 0.577,-2.307 -0.866,-4.613 1.586,-1.586 -0.288,-3.319 -2.452,-0.72 -0.721,3.75 0.938,0.935 -0.793,2.813 0.288,4.326 z m 4.326,-19.035 -0.721,0.721 0.577,2.453 1.154,-1.731 -1.01,-1.443 z m 1.731,-8.797 0.72,-3.749 -1.008,-2.306 0.576,-2.452 1.947,-1.948 0.504,2.669 -0.433,2.74 0.578,3.172 -1.01,2.307 -1.874,-0.433 z m 1.876,-32.158 0,3.174 0,2.595 2.019,0 -0.577,-2.451 0,-1.587 0,-1.874 -1.442,0.143 z m -83.928,-186.164 0,3.172 -0.288,2.884 1.73,1.154 1.154,1.442 0.144,2.595 2.308,0.865 -0.577,-2.595 -1.01,-2.019 1.01,-3.317 0,-4.037 -2.741,-1.154 -1.73,1.01 z m 56.095,15.141 -2.019,0.721 1.01,2.163 3.461,0 3.461,0 2.163,-2.163 -2.74,-0.865 -2.741,1.154 -2.595,-1.01 z m 9.952,106.277 -0.865,2.596 -1.37,1.369 1.586,1.587 0.937,1.946 -0.288,2.596 -0.145,3.316 1.514,1.514 1.659,-0.937 0,-3.461 1.514,-1.513 -1.226,-2.956 -2.018,-2.02 0.143,-2.595 -1.441,-1.442 z m 6.2,22.495 0,2.163 1.442,0.721 1.01,-1.297 -2.452,-1.587 z m -3.891,-136.273 -1.875,1.298 1.009,1.009 1.37,-1.37 1.37,-1.37 -1.874,0.433 z M 848.222,29.284 846.898,28.788 845.741,30 l -2.536,1.324 -2.067,2.067 0.192,3.556 -0.882,0.883 0.441,2.866 1.654,2.426 1.709,3.97 2.646,0.551 1.792,-1.792 1.351,-2.453 -1.488,-1.599 2.205,-3.198 -0.386,-3.473 0,-4.135 -2.15,-1.709 z m 32.505,361.5 -1.442,1.586 0,2.018 0,2.163 2.451,-1.009 1.299,1.298 1.442,-1.441 0.576,-2.886 -1.586,-2.306 -2.74,0.577 z m -165.056,-256.572 -0.303,-1.21 2.269,1.059 1.134,-1.135 1.588,-1.588 2.345,-2.344 1.437,1.739 0.756,0 1.89,-1.89 1.74,-2.042 3.327,-1.512 2.42,1.815 -1.361,3.781 0,2.117 -1.588,1.588 -2.496,1.135 -2.722,1.059 -2.722,0 -2.042,2.042 -3.252,-1.135 -1.664,-2.42 -0.756,-1.059 z m -5.597,3.177 -4.84,0 -1.588,1.588 -2.496,1.739 -1.815,-1.815 -4.386,1.361 0.303,2.723 1.135,1.135 1.663,1.663 1.135,1.134 -1.664,1.362 -2.269,-1.966 -1.21,1.209 -1.664,-1.664 -3.781,0.757 -1.664,-0.907 -0.756,1.966 1.21,1.209 -2.269,1.211 0,2.873 1.816,1.815 -0.455,2.118 1.664,0 2.118,2.118 -0.606,2.42 2.723,1.361 3.63,0.151 1.513,1.512 2.722,0 3.176,-0.907 0,-2.42 -1.966,-1.815 1.059,-1.059 1.588,1.588 2.798,-5.066 2.647,-2.647 1.135,1.134 2.42,-2.42 0.755,-2.269 -2.722,-0.907 -1.815,1.815 -2.268,-1.664 -2.723,-1.664 -2.723,-1.966 0.908,-1.966 1.437,-1.437 1.134,3.856 1.739,1.74 2.949,0.529 1.816,-0.756 1.513,0 1.511,-1.512 -0.756,-3.177 -2.419,0 0.605,-2.722 0,-1.966 -1.967,0.605 z m 2.572,26.62 -1.362,1.21 1.059,3.025 1.74,1.74 1.437,-2.799 0,-2.268 -1.059,-1.059 -1.815,0.151 z m 6.201,2.722 -1.74,1.74 0.984,2.344 1.664,1.664 -1.06,2.42 0.909,0.908 1.361,-2.874 3.478,-0.757 3.026,-1.21 4.083,-2.42 -2.117,-3.932 -2.874,0 -4.084,-1.362 -1.891,1.74 -1.739,1.739 z m -34.032,-6.504 -1.361,-1.361 -2.42,-0.151 1.589,1.588 0.982,3.554 1.966,0 0,-1.966 -0.756,-1.664 z m -75.627,58.837 -2.797,2.798 0,1.89 2.343,0 0.757,1.815 1.966,-0.907 2.27,-2.269 0,-3.63 -2.874,0 -1.665,0.303 z m 98.61,-106.481 -0.907,1.664 0.983,0.983 1.135,-0.983 -1.211,-1.664 z m -8.47,66.097 -2.874,-0.605 -0.907,0.756 1.664,0.756 2.117,1.664 0.907,-1.21 -0.907,-1.361 z"
       ><title>Дальневосточный ФО</title></path>
    <path
       class="region" id="RU-SZFO"
       d="m 203.667,209.453 0.417,-3.083 5.083,-5.083 8.5,0 2.666,-4.667 0,-9 5.334,-2.667 7,-3.5 4.833,1.834 2.834,0 2.333,2.333 2.862,-1.995 -0.696,3.495 2.833,-0.334 4,0.167 0,2.667 0.834,3 -1.834,-1.167 -1.916,-1.917 -1.75,1.75 0.833,3.167 0,3.167 2.834,1.5 2.166,2.166 0,3.5 2.417,1.167 0,3.917 2.75,2.75 1.333,4.666 0,4.834 -0.833,4.166 1,2.334 0.083,5.083 2.917,2.917 -0.167,3.666 -0.667,6 -2.916,5.084 -4.417,4.416 -4.667,0 -5.166,1 -4.5,-1.666 -4.917,-2.75 -3.083,-3.084 0,-4.5 -3.167,-3.166 -1.5,-3.5 -1.167,-3.334 -2.166,-3.666 -1.167,-6.167 -2.333,-1 0.75,-3.75 1.916,-1.916 -2.333,-2.334 -1.083,2.917 -1.584,1.583 0.667,3.667 0.083,4.25 -1.833,1.833 2.417,2.417 -0.667,3.667 -2.333,5.166 -4.083,1.25 -3.25,3.25 -1.251,5.917 -3.083,3.083 2.5,7.834 -2.416,4.25 3.416,3.417 3.667,3.666 4.167,-3 0.833,-4.166 -2.167,-2.167 0.334,-3.667 0,-2.833 2.833,-3 2.833,0 1,7.5 0.917,4.917 2.917,2.916 1.833,3.834 4.75,1.416 1.417,-1.416 -1.167,-2.834 2.833,-2.333 0.167,-5.833 5.167,0.833 4.833,-1.833 4,2.166 4.5,-1.416 3.083,0 1.917,1.916 2.833,4.334 -2.333,2.333 0,3.667 2.083,-2.584 2.917,-2.9155 4,-0.8335 3.333,-4.834 0,-4.166 1.333,-2.834 4.333,-2.166 0,-2.666 4.167,-2.5 0,-4.167 -0.667,-4 2.833,0 0.917,2.083 3.75,3.75 2.833,4.334 0,5.832 -1,3.001 -1.5,1.499 -2.5,-2.5 -3.5,-0.832 -5.333,1.832 0,4.334 1.333,4 0,3.334 3.833,1 3.667,1.666 4.167,-2 0,-3 4.333,-1 4.167,2 -0.667,-2.666 6.5,1.166 3.5,-0.666 6.333,0.832 3.667,0 1.833,3.334 1.667,0 0,-3 5.333,-1.666 2.835,0 1.167,4.332 -3.167,0 -1,3 -2.5,0.834 3.833,3.5 2.667,0 5,-2.166 4.75,0.916 5.167,5.167 1.75,-1.75 3.5,0 4.417,-1.417 1.75,1.75 -0.5,2.334 -2.667,1.833 0,2.833 3.167,2.667 0.25,-3.083 1.417,-1.417 3.333,0.833 0,-2.666 3.167,-0.5 0.667,-4 -0.5,-4.834 3,-1.5 2.583,-0.75 3.083,3.084 1.333,-1.334 3.417,4.25 3.917,3.917 3.167,3.167 0.775,1.582 -1.359,2 -1.625,1.625 -1,1 1.625,1.542 0.333,1.25 1.25,0.417 0,2.583 0,3.083 -1.5835,0 -0.7505,1.833 -1.333,0.667 -0.5,3.083 3.333,1.666 0,2.167 -3.083,1.25 2.583,2.583 -4,2 -3,3 -3.166,0 -1.167,3.667 -5.667,0 -5.333,1.167 -5.333,3 0,3.667 -4.334,-0.167 -3.208,0.5 -1.75,2 -3.125,1.625 -3.125,3.125 -2.875,0.375 0,-2.625 -2.125,-0.75 -2.562,2.562 -3.438,3.438 -1.5,2.875 0.625,3.625 -4,2.5 -0.375,3 -3.375,2.125 -2.25,4.25 0.625,2.875 -1.375,2.625 0,2.25 -4.125,4.125 -0.562,2.937 -1.563,1.563 -0.875,2.375 -5.75,-0.875 -4.25,-1.625 -3.75,-2 -3.875,-2.625 -1.75,0 -1,2.125 -1.687,0.562 -1.188,-1.187 -1.687,-0.563 -1.688,1.688 -3,-1.125 -2.625,1.375 -2.375,-2.375 -3.625,-1.625 -2.125,0.75 -1.75,-2.125 0.375,-2.125 -0.875,-1.375 -2.125,-0.75 -1.625,1.625 -1.187,-1.188 -1.188,1.188 -3.375,-1.875 -1.562,3.062 1.687,1.688 0,2 -2.546,1.005 -2.704,0 -1.535,1.536 -2.485,0.292 -0.804,-1.828 -1.389,-1.388 -2.631,2.485 -1.9,-1.9 -3.07,-1.462 -2.924,0.731 -1.169,3.362 -1.901,2.339 -1.169,-1.169 1.023,-2.339 -0.731,-2.632 0,-2.485 -1.753,-1.754 0,-2.485 2.192,-2.193 0,-2.193 3.216,-0.73 0,-3.362 2.047,-2.047 -0.309,-2.533 -1.5,-0.75 0.584,-1.833 -1.625,-1.625 -0.625,-0.625 -0.917,-1.5 -1.25,-0.417 -1.792,1.541 -3.663,3.664 -2.266,2.265 -3.157,-1.403 -1.754,1.608 3.654,3.801 -2.338,1.169 0,3.07 -1.097,1.096 -3.874,-3.435 -2.046,3.216 -3.655,-0.877 -1.534,1.535 -2.266,-3.289 -3.362,-1.901 -2.778,-1.315 -1.169,-3.216 -3.29,-3.289 -4.312,-0.804 -2.192,-4.678 -3.362,1.608 -3.655,-1.608 -4.093,1.023 -3.654,1.608 -3.948,-3.947 0,-3.508 0,-3.07 -3.142,-3.142 -1.608,1.608 -4.166,-2.851 -1.754,-1.754 -3.07,0.292 -2.054,0.374 0,-3.342 0.862,-2.802 -2.371,-0.755 -2.695,0.539 -3.449,-1.616 -2.803,-1.078 -2.263,-1.079 -1.401,-1.4 -0.431,1.401 -2.156,0 -1.617,-1.941 -2.371,0 -0.593,-2.425 -1.347,-1.347 -1.833,-0.916 -2.209,0 -1.779,1.779 -2.802,0 -1.402,1.401 -2.318,-0.27 -1.886,-1.886 -3.556,0 -1.941,-1.186 -2.533,0.162 -1.455,-1.455 -2.91,0 -1.51,-1.509 -1.001,-2.166 -2.583,2.167 -0.25,2.083 -1.5,1.5 -0.333,3.5 -0.917,2 -1,1.75 -2.333,0 -1,2.833 -2.25,-2.75 -2.834,0.251 0,-5.668 -2.833,-2.666 -3.167,-0.834 1,-2.5 0.834,-2.666 -2.334,-2.334 -1.5,-3.332 0.5,-2.334 3.167,-3.166 1.833,-3.334 -0.833,-3 2.667,-0.666 4,-2.5 0,-3.5 1.666,-2 4.167,-0.167 1.833,-2.167 0.167,-2.5 3.5,-1.333 2.833,-3.833 3.834,0.166 3.333,-2 4.5,1 0.667,-2.5 1.5,-1.5 2.833,1.333 2.333,2.5 3.667,1.167 1.333,3 1.334,3.334 2,-2 -0.334,-4.834 -3,-2.667 0,-5.666 2.667,-0.667 0.833,-0.833 -3.666,-1.5 -2.167,-2.5 15.258,0 22.075,-0.167 7,-2.5 0,-4.333 1.167,-11 4.667,0 4,-3.167 0,-4.333 3,-1.167 0,-5.667 2.666,-0.166 5.834,-4.667 2.833,1.333 6.167,-11.5 z m 10.144,41.223 -0.605,0.907 1.059,1.362 1.361,-1.362 -1.815,-0.907 z m 140.965,2.117 -1.664,0 -1.815,-2.722 -1.058,0.605 -3.176,-3.025 -2.421,-2.571 0.908,-2.723 2.42,-0.756 0.907,-1.512 -1.664,-1.361 0.152,-3.631 -1.059,-0.302 -1.059,-2.723 -2.268,-0.151 -1.815,-2.571 0.605,-3.328 2.419,-3.327 2.875,0.302 0.907,1.059 1.058,0.454 0.454,-1.967 3.479,-1.058 2.723,-2.874 -1.815,-1.966 2.42,-1.513 2.722,1.059 0.757,-2.269 0,-2.269 3.478,0 1.664,1.664 1.739,-1.739 0.378,-1.588 3.782,-0.757 -1.286,-1.285 -3.252,-1.135 0,-1.209 3.782,-1.06 3.932,-1.058 1.966,-1.966 2.571,0 0,-1.815 3.631,-0.152 -1.966,-1.966 3.176,-0.151 1.21,1.21 -0.152,-3.025 1.513,-1.513 -1.664,-1.966 1.059,-1.664 1.815,1.815 2.269,0 0,-2.269 3.327,1.21 1.664,-1.815 1.664,-1.966 2.118,0 3.629,-1.663 2.572,0.907 3.781,0 2.496,-2.496 2.949,0.227 1.361,1.967 3.176,0 1.513,1.512 2.723,-0.757 3.781,0 2.496,-2.495 2.949,-1.588 3.932,-1.513 3.63,0 2.118,3.328 0,3.63 -3.176,2.874 -2.874,2.722 -3.781,0.303 -4.538,2.117 -4.084,-1.512 -1.966,1.966 -4.689,-0.151 -6.05,0 -2.269,2.42 -4.688,0 -3.479,1.966 1.059,2.42 -2.421,0.907 -2.873,-0.302 -2.571,0 -0.303,1.664 -2.722,-0.757 0,2.723 -2.723,1.966 -2.269,1.664 0,-2.571 -1.815,1.664 0.454,3.025 -1.815,0 -1.286,-1.286 0,1.437 0,2.269 -1.323,-1.324 -1.701,1.701 -1.438,1.438 -1.967,0 -1.512,1.966 -1.966,3.327 -3.176,0 -2.572,2.118 0,2.874 -2.571,1.059 -0.908,3.025 -2.117,2.117 0,3.782 -1.059,2.722 1.361,3.932 -1.21,3.933 1.664,2.572 0.756,2.722 -0.907,0.908 -2.571,1.21 0,-1.967 -2.42,-1.362 z m 96.349,-148.673 -1.25,0.375 1,1.375 0,1.25 1.75,0 0,-2.375 -1.5,-0.625 z m -0.375,10.625 -0.875,1.375 -3.25,0.625 -2.125,1.125 1.625,0.75 -0.75,1.75 1.375,0.375 2.75,0 2.188,-2.188 1.625,-1.625 -0.563,-2.437 -2,0.25 z m -10.375,-2.25 -0.687,0.687 1.312,1.313 2.375,-0.875 0,-2 -1.375,0 -1.625,0.875 z m -1.812,3.937 -1.813,-2.062 -1.375,1.375 -1,2 0,2.5 2.125,0.375 0.5,1.5 2.625,-0.625 1.688,-1.688 1.25,-1.25 0.687,-2.062 -1.875,0 -2.812,-0.063 z m -7.438,8.688 -0.812,0.812 0,1.563 1.687,0 0.625,-2 -1.5,-0.375 z m -3.5,-6.375 -0.875,-0.875 -2.75,0 0,1.875 -1.5,1.5 0.875,0.875 3,-0.625 1.125,1.125 2.625,-0.625 0.75,-1.75 1.875,0.625 -1,-2.25 -1.687,-1.688 -2.438,1.813 z M 441.5,97.87 l -0.75,1.5 1.313,1.312 1.25,-1.25 -1.813,-1.562 z m -2.75,3.5 -2,0 0,2.25 2.125,2.125 0,1.75 1.875,-0.875 -1.125,-2.375 -0.875,-2.875 z m -12.5,6.5 -1.75,0 -0.375,0.375 1.438,1.437 0.687,-1.812 z m 1.5,2.875 -1.187,1.187 1.187,1.313 1.375,-0.125 -1.375,-2.375 z m 1.125,-5.5 0,1.625 1.75,0 -0.375,-1.875 -1.375,0.25 z m 2.438,4.062 0,1.438 1.437,0 -1.125,-1.125 -0.312,-0.313 z m 1.437,3.313 0.625,0.625 1.125,-1.125 -1.75,0.5 z m 1.75,-6.625 0,1.75 1.5,0.125 0,-1.875 -1.5,0 z m -2.25,-3.5 0.875,1.625 0.813,-0.813 -0.813,-0.812 -0.875,0 z m -16.125,10.5 -0.937,0.937 1.625,1.625 1.812,0.063 0,-3 -1.25,-1.625 -1.25,2 z m 4.125,-2 0.625,1.75 1.25,0 0,-1.5 -1.875,-0.25 z m -7,-10 -1.25,1.25 0,1.375 -1.437,1.437 -2.563,-1.812 -2.125,1.125 0,1.5 -2.625,-1.875 -2,0.75 0.625,3 1.875,-0.625 0,2 2,0.5 1.813,-1.813 2.562,-1.062 2.125,0.625 3.125,0 2.25,-2.25 -2.125,-2.125 1.438,-1.438 -2.438,-1.437 -1.25,0.875 z m -7.125,-3.125 -2.75,0 -1.625,-1.625 -1.125,2.25 1.438,1.437 0.562,1.688 3.25,-1.125 1.125,1.125 2.125,-0.875 0.875,0.875 0,-1.875 -1.437,-1.438 -1.313,0 -1.125,-0.437 z m 2.438,13.187 -1.063,0 0.375,1.563 2.25,0.125 -1.562,-1.688 z m 0.437,3.313 -1.125,1.125 0.875,0.875 2.125,0.5 -1.375,-1.375 -0.5,-1.125 z m 9.125,-16.125 0,1.625 1.25,0 1.25,-1.25 -2.5,-0.375 z m -396.584,159.892 2.594,0.582 2.223,-0.635 0.847,-1.641 2.011,0.317 1.88,1.88 0.079,2.568 1.535,0.476 0.318,2.012 2.382,0.423 0.529,-1.906 -1.296,-1.296 1.111,-1.112 0.715,0.715 2.276,1.904 0,2.86 -0.318,2.488 1.323,2.17 1.324,0.899 0.476,3.23 -1.164,2.434 -5.558,2.806 -8.417,-10.005 -4.87,-11.169 z m 343.824,3.58 -2.42,1.21 -1.815,0.605 0.454,3.933 0.302,2.118 1.664,0.453 0.605,3.176 3.177,0.303 1.058,-2.571 -1.513,-2.571 0.152,-2.874 -1.664,-3.782 z m -53.543,-13.158 -3.327,0.907 -1.967,2.572 -1.512,1.966 1.058,2.873 2.421,0.909 2.268,0.906 2.118,-1.512 2.571,0.453 1.361,-3.175 -2.117,-2.723 -0.152,-2.269 -2.722,-0.907 z"
       ><title>Северо-Западный ФО</title></path>
  
  <path
     d="m 88.820472,488.55887 -1.25,1.4375 0,2 -1.375,2 1.25,1.0625 1,2 -1.375,2.18751 1.625,1.625 -2.75,2.125 -1.75,0.5 0.625,2.375 -0.875,1.8125 -2.5,3.125 -3.25,0 -1.4375,-2.125 -0.9375,-2.03125 -1.65625,0 -1.65625,1.65625 -2.375,0.375 -2.03125,2 0.84375,3.34375 2.5,3.84375 1.15625,4 3.6875,2.5 2.5,1.15625 1.5,3.84375 2.8125,2.3125 -0.65625,3.34375 2.34375,2.15625 0.65625,5.34375 2.34375,2.34375 3.65625,0.5 2.09375,2.0625 0.5625,1.75 2.84376,0.34375 0.84375,3 2.499998,2.65625 -0.999998,2.84375 -1.5,2.5 2.312498,3 1.34375,3.5 0,2.15625 2.65625,1.84375 0.34375,4 1.84375,5.5 0.5,3.15625 3.65625,0.84375 3.84375,-1.34375 2.65625,1.1875 4,-1.84375 -0.34375,-5.34375 0.6875,-4.3125 -1,-5.6875 0,-4.65625 3.65625,-6 1.65625,-1.5 0,-1.15625 1.9375,-1.9375 0.75,-2.90625 0.8125,-3.15625 -1,-3.1875 -1.75,-1.75 0,-2.75 1.71875,-1.6875 0.21875,-2.9375 -0.8125,-2.125 -1.8125,-0.625 -1.125,-1.71875 -2.25,-1.65625 0,-3.8125 -1.4375,-2.09375 -0.4375,-2.53125 -1.8125,-1.8125 0,-2 -1.28125,-1.6875 -1.71875,-1.71875 -1.25,-2.34375 1.1875,-2.25 -1.09375,-3 -1.59375,-1.5625 -0.5,-2.09375 -1.5625,-1.84375 -0.34375,-2.40626 -1.875,-0.78125 -2.96875,0.53125 -1.34375,-1.34375 -0.75,-2.1875 -1.375,0.5 -1.6875,0 -0.749998,-2.1875 -1.875,-0.9375 -1.1875,-1.28125 -1.84376,0 -1.46875,1.46875 -2.3125,0.3125 -0.875,-1.375 -1.3125,-0.4375 z"
     class="region" id="RU-SKFO"
      ><title>Северо-Кавказский ФО</title></path>
  <path

     d="m 146.62982,433.16145 -2.34375,2.09375 -4.75001,0 -1.21875,4 -3.90625,3.875 -4.28124,0 -1.5,1.53125 -2.34375,0 -1.15625,-1.625 -2.875,0 0,-2.125 -1.28125,-1.28125 -1.34375,1.65625 -1.15625,2.84375 -6.1875,0.84375 0.1875,2.65625 -2.34375,-0.34375 -2.34375,2.34375 0.6875,3.65625 -2.5,1.5 -3.6875,3.6875 -4.000001,-4.34375 -2.65625,-2.84375 -2.84375,1.1875 -3.15625,-1.34375 -3.65625,1.65625 -2.5,2.6875 2,0.65625 1.8125,1.84375 2.84375,0.65625 2,1.5 -0.65625,3 -2.84375,-1.15625 -3.84375,-0.5 -2.3125,-1 -1.5,1.5 -2,-1.84375 -1.84375,-1.34375 -2,-0.3125 -0.65625,2.15625 1.3125,2.5 -0.5,4.15625 -2.5,-0.8125 -1.999998,0 -3.8125,0.15625 -2.84375,1.15625 -1.156251,2.5 -2.5,-0.8125 -2.6875,-3.34375 -2,0.34375 -1.8125,1.8125 0.8125,3.34375 -1,3 1.34375,2.65625 2,1.84375 -0.34375,5 1.6875,2.5 1.3125,2.84375 0.6875,5.65625 -0.5,7.65625 1.3125,4 2.187501,-0.3125 1.65625,2.3125 1.34375,1.6875 1.8125,0.3125 2.03125,-2 2.374998,-0.375 1.65625,-1.65625 1.65625,0 0.9375,2.03125 1.4375,2.125 3.25,0 2.5,-3.125 0.875,-1.8125 -0.625,-2.375 1.75,-0.5 2.75,-2.125 -1.625,-1.625 1.375,-2.1875 -1,-2 -1.25,-1.0625 1.375,-2 0,-2 1.25,-1.4375 1.3125,0.4375 0.875,1.375 2.3125,-0.3125 1.46875,-1.46875 1.84375,0 1.1875,1.28125 1.875,0.9375 0.750001,2.1875 1.6875,0 1.375,-0.5 0.75,2.1875 1.34375,1.34375 2.96875,-0.53125 1.875,0.78125 0.34375,2.40625 1.5625,1.84375 0.5,2.09375 1.59375,1.5625 1.09375,3 -1.1875,2.25 1.25,2.34375 1.71875,1.71875 1.28125,1.6875 0,2 1.8125,1.8125 0.4375,2.53125 1.4375,2.09375 0,3.8125 2.25,1.65625 1.125,1.71875 1.8125,0.625 0.8125,2.125 -0.21875,2.9375 2.03125,0.53125 3.5,-1 3.18749,0 2.8125,-3.34375 2.34376,-1 0,-2.3125 3,0.5 1.15625,1.15625 2.5,0.6875 c 0,0 -0.333,1.25 1.25,1.25 1.583,0 3.59375,-0.25 3.59375,-0.25 l 1.5,0 1.84375,0 2.3125,0 2.84375,-0.34375 1.65625,-1.65625 -2.0625,-2.09375 -1.4375,-2.90625 -0.3125,-3 2.5,0.3125 1.65625,1.84375 1.75,-1.75 0,-4.59375 -0.90625,-5.65625 0.8125,-4.34375 -2,-2 -3.15625,-3 -2.15625,-1.3125 2.15625,-2.1875 1,-4.3125 -2.40625,-2.4375 -1.09375,-3.25 2.65625,-1.84375 2.1875,-2.15625 3,0.15625 2.8125,-1.15625 0,-3 2.1875,-2.15625 2.5625,-2.59375 3.25,0 2.1875,-1.59375 1.15625,-2.65625 -0.125,-3.34375 -2.03125,-2.03125 -0.46875,-2.5 -2.375,0 -1.5625,-1.5625 -0.6875,-3.375 -2.40625,-0.875 -1.21875,1.21875 -2.1875,-2.0625 3,-2.90625 -0.4375,-4.65625 -3.96875,-3.84375 -3.375,0.125 0,-1.96875 -2.1875,-1.15625 -3.71875,-0.46875 -1.0625,-3.9375 0.25,-2.90625 -3.375,0 -2.5625,-1.40625 -0.5625,-1.84375 -2.4375,-0.46875 z"
     class="region" id="RU-YUFO"
     ><title>Южный ФО</title></path>
  <path
      
     d="m 47.657554,438.87299 -0.197674,-0.0517 -0.1696,0.0649 -0.242764,0.26536 -0.392779,-0.0931 -0.258487,-0.0926 -0.05065,0.0553 -0.248233,0.003 -0.341789,0.11906 -0.192147,0.2101 -0.116105,0.26091 -0.146608,0.16035 -0.719835,-0.28488 -0.973952,-0.78405 -2.138412,1.30598 -2.043169,-0.95491 -0.02073,-1.91976 -2.590832,-2.91487 -2.872734,-3.37032 c 0,0 -1.291556,-0.16915 -1.423864,-0.18534 l -0.184943,-0.0258 0.134325,0.0541 0.04845,0.20159 -0.0022,0.25683 -0.06557,0.2056 -0.05271,0.31213 -0.14661,0.16035 -0.217702,0.10398 -0.245703,0.0141 -0.06557,0.2056 -0.101162,0.11056 -0.07323,0.20049 -0.101163,0.11055 -0.02003,0.15585 -0.336724,0.11354 -0.09607,0.10504 0.09393,0.15185 -0.05065,0.0553 -0.217702,0.10397 -0.169588,0.0649 -0.240629,0.008 0.09898,0.14632 0.240638,-0.008 0.190156,0.0464 0.220633,0.14727 0.345119,0.39973 0.220604,0.14737 0.116899,0.24731 0.04844,0.20158 -0.240619,0.008 -0.263581,-0.087 -0.202729,-0.0463 -0.266179,-0.0976 -0.09897,-0.14631 -0.58162,0.63575 -0.266159,-0.0976 -0.144546,-0.0965 0.02768,-0.15072 0.04553,-0.0497 -0.101546,-0.15692 -0.01784,-0.10104 -0.099,-0.14632 -0.121623,-0.001 -0.144546,-0.0965 -0.853609,0.0355 -0.316746,-0.042 -0.144517,-0.0966 -0.0254,-0.10611 -0.124527,-0.25237 -0.06849,-0.0457 -0.392769,-0.0931 -0.316746,-0.042 -0.39022,-0.0825 -0.286144,0.0583 -0.245723,0.0141 -0.172189,0.0543 -0.266091,-0.0976 -0.195134,-0.0412 -0.633365,-0.085 -0.245664,0.014 -0.316746,-0.042 -0.357544,-0.23879 -0.170003,-0.20265 -0.124504,-0.25238 0.0022,-0.25683 -0.03058,-0.10069 -0.190205,-0.0464 -0.09607,0.10504 -0.03269,0.15628 0.106607,0.1514 -0.146608,0.16035 -0.248234,0.003 -0.263581,-0.0871 -0.197712,-0.0517 -0.314163,-0.0316 -0.266159,-0.0975 -0.195124,-0.0412 -0.316747,-0.042 -0.195134,-0.0412 -0.266159,-0.0975 -0.195125,-0.0412 -0.316756,-0.042 -0.271205,-0.092 -0.190184,-0.0464 -0.316747,-0.042 -0.245683,0.014 -0.266092,-0.0976 -0.240639,0.008 -0.321769,-0.0366 -0.286154,0.0583 -0.245664,0.014 -0.172188,0.0543 -0.121566,-0.001 -0.197266,0.2156 -0.02002,0.15582 -0.172198,0.0543 -0.289076,-0.19306 -0.09907,-0.14625 -0.296667,-0.19814 -0.113905,0.004 -0.172177,0.0542 -0.245712,0.0141 -0.190156,-0.0464 -0.240628,0.008 -0.271206,-0.092 -0.220603,-0.14738 -0.271205,-0.092 -0.481261,0.017 -0.316745,-0.042 -0.195125,-0.0412 -0.975188,0.0345 -0.316736,-0.042 -0.291219,0.0638 -0.432806,0.21858 -0.148789,0.41718 -0.116104,0.26091 -0.148789,0.41718 0.220595,0.14737 0.124514,0.25238 0.09394,0.15185 0.116898,0.2473 0.80637,0.53855 0.73457,-0.026 0.164525,-0.0593 0.316746,0.042 0.806361,0.53855 0.167451,0.19205 0.585757,0.3912 0.515169,0.60236 0.116898,0.2473 0.295771,1.23064 0.06849,0.0457 0.124513,0.25238 0.0306,0.10059 -0.0022,0.25685 -0.02772,0.15071 0.101544,0.15693 0.09689,0.40315 -0.02501,0.16141 0.0029,0.25132 0.04338,0.2071 0.243516,0.24285 0.170023,0.20266 0.124505,0.25237 -0.07037,0.21121 -0.0022,0.25684 0.321769,0.0366 0.258555,0.0925 0.316747,0.042 0.195124,0.0412 0.537315,0.18967 0.220603,0.14739 0.17505,0.19711 0.244776,1.01847 0.111848,0.25282 0.05605,0.20665 0.167443,0.19205 0.0033,0.51879 -0.146608,0.16035 -0.143695,0.41165 -0.14671,0.16034 -0.07037,0.2112 -0.09617,0.10501 -0.07823,0.20604 -0.0022,0.25684 -0.288265,0.31512 -0.141222,0.42225 -0.581623,0.63576 -0.318855,0.21454 -0.240629,0.008 -0.321769,-0.0366 -0.26617,-0.0975 -0.291218,0.0638 -0.268274,0.15926 -0.169587,0.0649 -0.19216,0.21011 -0.240619,0.008 -0.148777,0.41717 -0.146705,0.16031 -0.123669,0.25583 -0.02003,0.15583 -0.09607,0.10504 -0.07038,0.21122 -0.273338,0.16479 -0.172176,0.0542 -0.291219,0.0638 -0.164525,0.0594 -0.192148,0.2101 0.01784,0.10103 0.175069,0.19712 0.144517,0.0966 0.101537,0.15692 -0.316727,-0.042 -0.585753,-0.39121 -0.195144,-0.0413 -0.07605,-0.0508 -0.121555,-10e-4 -0.243599,-0.24278 -0.481259,0.017 -0.07605,-0.0508 -0.271215,-0.092 -0.220623,-0.14728 -0.02002,0.15583 -0.07038,0.21122 0.0969,0.40314 0.124504,0.25238 0.09393,0.15185 0.09689,0.40314 0.119462,0.25791 -0.02003,0.15584 0.07393,0.30766 0.534773,0.17899 0.220603,0.14738 0.0434,0.20709 -0.02003,0.15585 0.04844,0.20158 -0.04761,0.30661 -0.166636,0.31619 0.04338,0.2071 0.175131,0.19705 0.124516,0.25238 0.09394,0.15186 0.124509,0.25236 0.170023,0.20266 0.874818,0.58428 0.263572,0.087 0.121633,10e-4 0.175059,0.19711 0.04845,0.20157 0.09393,0.15185 0.170016,0.20265 0.44121,0.29467 0.314163,0.0316 0.197673,0.0517 0.30912,0.0372 0.271204,0.092 0.195125,0.0412 0.316745,0.042 0.220605,0.14738 0.190154,0.0464 0.321769,0.0366 0.481271,-0.017 0.344333,-0.10848 0.215105,-0.11461 0.291218,-0.0638 0.271195,0.092 0.144527,0.0966 0.392789,0.0931 0.291197,-0.0638 0.217706,-0.104 0.119093,-0.01 0.09607,-0.10503 0.126708,-0.005 0.09393,0.15185 0.441222,0.29468 0.291197,-0.0638 0.870695,-0.44268 0.14661,-0.16035 0.172177,-0.0542 0.291216,-0.0638 0.172177,-0.0542 0.215093,-0.1146 0.172201,-0.0543 0.240629,-0.008 0.34178,-0.11908 0.291206,-0.0638 0.172187,-0.0542 0.240619,-0.008 -0.05065,0.0553 0.49394,-0.0175 0.309099,0.0372 0.202739,0.0463 0.212993,0.14228 1.07464,0.37924 0.195125,0.0412 0.625858,0.079 0.248233,-0.003 0.309111,0.0372 0.202739,0.0463 0.316736,0.042 0.167453,0.19204 0.144556,0.0965 0.170002,0.20266 0.144556,0.0965 0.271205,0.092 0.190204,0.0464 0.152151,0.10155 0.167453,0.19204 0.392789,0.0931 0.367273,-0.0129 0.509681,0.34041 0.170014,0.20265 -0.0022,0.25683 -0.143698,0.41168 0.289076,0.19306 0.170003,0.20266 0.222754,-0.10951 0.240629,-0.008 0.655573,-0.32809 0.265678,-0.1699 0.172189,-0.0543 0.291217,-0.0638 0.172164,-0.0542 0.240629,-0.008 0.271215,0.092 0.289066,0.19306 0.291217,-0.0638 0.217699,-0.10396 0.245693,-0.0141 0.217698,-0.10397 0.245713,-0.0141 0.04338,0.2071 0.09906,0.14625 0.367286,-0.013 0.04337,0.20711 0.124524,0.25239 0.04846,0.20155 0.192147,-0.2101 0.07822,-0.20602 0.146608,-0.16035 0.291219,-0.0638 0.190155,0.0464 0.220594,0.14739 0.09906,0.14624 0.197673,0.0517 0.101163,-0.11056 -0.200588,-0.30319 -0.03057,-0.10069 0.197263,-0.21558 0.172198,-0.0543 0.146608,-0.16035 0.172187,-0.0542 0.195115,0.0412 0.721903,-0.0255 0.271214,0.092 0.316736,0.042 0.220594,0.14739 0.271214,0.092 0.654221,0.43694 0.238467,0.24837 0.101542,0.15694 0.167528,0.19196 0.124524,0.25238 0.09393,0.15185 0.170003,0.20265 0.104499,0.40822 0.170013,0.20265 0.04844,0.20157 7.93e-4,0.50817 -0.07038,0.21123 -0.09607,0.10503 -0.07822,0.20604 0.170015,0.20264 0.220594,0.14739 0.195135,0.0412 0.220604,0.14738 0.190145,0.0464 0.175129,0.19706 0.654223,0.43693 0.291196,-0.0638 0.172189,-0.0543 0.222776,-0.10951 0.481259,-0.017 0.04844,0.20157 0.09394,0.15184 0.09607,-0.10504 0.106596,0.1514 0.04845,0.20156 0.170003,0.20266 0.04844,0.20158 0.144546,0.0965 0.170013,0.20266 0.09898,0.14631 0.220603,0.14739 0.169996,0.20264 0.263581,0.0871 0.04553,-0.0497 0.273338,-0.1648 0.240619,-0.008 0.197723,0.0517 0.722683,0.48266 0.542386,0.18408 0.190204,0.0464 0.537297,0.18966 0.245674,-0.014 0.192185,-0.21008 0.0043,-0.5137 -0.05605,-0.20667 0.07823,-0.20603 0.48552,-0.53073 0.260652,-0.16434 0.338854,-0.3704 0.172173,-0.0543 0.146698,-0.1603 0.341789,-0.11908 0.293762,-0.0532 0.119074,-0.01 0.289079,0.19306 0.126689,-0.005 0.172173,-0.0543 0.04547,-0.0497 -0.02547,-0.10613 0.02002,-0.15584 0.09609,-0.10504 0.177227,-0.0598 0.286153,-0.0583 0.441219,0.29468 0.04845,0.20157 0.09899,0.14633 0.441218,0.29468 0.266162,0.0976 0.215133,-0.1146 0.02763,-0.15078 0.146671,-0.16031 0.07056,-0.21114 0.02763,-0.15076 0.07056,-0.21115 0.0021,-0.25685 -0.106597,-0.15141 -0.212994,-0.14228 -0.29882,0.0587 -0.258482,-0.0926 -0.05605,-0.20665 0.0043,-0.51371 -0.433609,-0.2896 -0.542382,-0.18408 -0.170012,-0.20266 -0.04844,-0.20156 -0.09394,-0.15186 -0.175056,-0.19712 -0.190205,-0.0464 -0.248223,0.003 -0.144527,-0.0966 0.268284,-0.15926 0.07037,-0.21121 -0.09898,-0.14631 -0.36222,0.007 -0.195125,-0.0412 -1.239987,-0.82816 -0.271194,-0.092 -0.607925,0.0215 -0.190155,-0.0464 -0.126679,0.004 -0.260625,0.16436 -0.222755,0.10951 -0.172198,0.0543 -0.240629,0.008 -0.169591,0.0649 -0.537304,-0.18967 -0.09393,-0.15185 -0.175064,-0.19713 -0.119461,-0.25791 -0.09906,-0.14624 -0.04843,-0.20157 -0.09393,-0.15184 -0.05605,-0.20667 -0.116923,-0.24728 0.07038,-0.21122 0.533962,-0.32915 0.09607,-0.10503 -0.289075,-0.19307 -0.190195,-0.0464 -0.686115,0.22752 -0.197266,0.21561 -0.113905,0.004 -0.34178,0.11908 -0.121623,-10e-4 -0.144556,-0.0965 -0.172174,0.0542 -0.197265,0.2156 -0.24063,0.008 -0.291206,0.0638 -0.316746,-0.042 -0.537305,-0.18967 -0.195115,-0.0412 -0.220604,-0.14738 -0.258555,-0.0925 -0.202758,-0.0462 -0.271215,-0.092 -0.190155,-0.0464 -0.220604,-0.14738 -0.263571,-0.087 -0.365138,-0.24387 -0.09944,-0.41375 -0.167453,-0.19205 -0.09943,-0.41374 -0.09899,-0.14632 -0.04844,-0.20158 -0.119459,-0.25792 -0.04845,-0.20155 -0.106598,-0.1514 0.0021,-0.25687 0.02768,-0.15074 -0.0055,-0.26193 0.02768,-0.15073 0.0022,-0.25684 0.07037,-0.21121 -0.04844,-0.20158 0.0021,-0.25687 0.02003,-0.15583 0.0022,-0.25685 0.02002,-0.15582 0.0022,-0.25686 0.02003,-0.15584 0.0043,-0.51371 0.02003,-0.15585 0.0021,-0.25686 0.02769,-0.15074 -0.0055,-0.26193 0.02769,-0.15074 0.0022,-0.25682 -0.04845,-0.20158 0.07037,-0.21122 -0.04844,-0.20155 0.07038,-0.21123 0.0021,-0.25686 -0.04844,-0.20157 0.136126,-0.41674 0.03268,-0.15627 -0.0029,-0.25133 0.07037,-0.21122 0.02003,-0.15584 0.07822,-0.20603 0.0022,-0.25685 0.07037,-0.21121 0.02003,-0.15584 0.370702,-1.03488 0.02003,-0.15585 0.148785,-0.41718 -0.0055,-0.26193 0.07313,-0.20051 0.0022,-0.25685 0.146607,-0.16034 0.07038,-0.21121 0.146608,-0.16035 0.143694,-0.41166 0.146608,-0.16035 0.07038,-0.21122 0.146607,-0.16034 0.07323,-0.20049 0.121191,-0.2664 0.07037,-0.21121 0.434926,-0.47547 0.07822,-0.20603 0.146611,-0.16036 0.116193,-0.26085 0.192146,-0.21009 0.341789,-0.11907 0.248234,-0.003 0.05065,-0.0553 0.258555,0.0925 0.39278,0.0931 0.242764,-0.26536 0.169579,-0.0649 0.16976,0.0424 0.0046,-0.004 z"
     class="region" id="RU-KRFO"
     
      ><title>Крымский ФО</title></path></g>
<rect id="leg0" y="200" width="0" height="0"/>
<rect id="leg1" width="0" height="0"/>
<rect id="leg2" width="0" height="0"/>
<rect id="leg3" width="0" height="0"/>
<rect id="leg4" width="0" height="0"/>
<rect id="leg5" width="0" height="0"/>
<rect id="leg6" width="0" height="0"/>
<rect id="leg7" width="0" height="0"/>
<rect id="leg8" width="0" height="0"/>
<rect id="leg9" width="0" height="0"/>
<text style="font-size:20px" id="tcol0"></text>
<text style="font-size:20px" id="tcol1"></text>
<text style="font-size:20px" id="tcol2"></text>
<text style="font-size:20px" id="tcol3"></text>
<text style="font-size:20px" id="tcol4"></text>
<text style="font-size:20px" id="tcol5"></text>
<text style="font-size:20px" id="tcol6"></text>
<text style="font-size:20px" id="tcol7"></text>
<text style="font-size:20px" id="tcol8"></text>
<text style="font-size:20px" id="tcol9"></text>
<a xlink:href="http://navizv.github.io/zimm/" target="new">
<text style="font-size:15px;fill:blue;text-decoration:underline" id="mylink" x="950" y="600">http://navizv.github.io/zimm/</text>
</a>

</svg>
